<svg id="Layer_1" data-name="Layer 1" xmlns="http://www.w3.org/2000/svg" viewBox="0 0 517.92 446.23"><defs><style>.cls-1{fill:#67be58;}.cls-2{fill:#1f3d7c;}.cls-3{fill:#7b6b32;}.cls-4{fill:#7b263b;}.cls-5{fill:#c72850;}.cls-6{fill:#a19533;}</style></defs><title>debt</title><path class="cls-1" d="M239.74,424.9v-4.53c0-4.48,2.88-6.24,8.37-6.24,5.87,0,9.07,1.68,9.07,6.47v4.3Zm14.89-3.14v-1.11c0-2.45-1.83-3.3-6.52-3.3-4,0-5.77.75-5.77,3.27v1.14Z" transform="translate(-8.73 -8.63)"/><path class="cls-1" d="M249.42,403v5.62h5.08v-6.28l2.68.38v9H239.74v-8.94h2.73v5.87h4.25V403Z" transform="translate(-8.73 -8.63)"/><path class="cls-1" d="M239.74,400.43v-9h2.73v5.88H247V391.8h2.7v5.54h7.53v3.09Z" transform="translate(-8.73 -8.63)"/><path class="cls-1" d="M239.74,389.51v-3.12h14.78v-6l2.66.31v8.79Z" transform="translate(-8.73 -8.63)"/><path class="cls-1" d="M252.8,375.36l4.38.88v3.12l-17.44-4.05v-4l17.44-4.07v3.27l-4.38.85Zm-2.71-3.47c-3.35.64-5.79,1.16-7.44,1.44v.08c1.6.2,4.22.77,7.44,1.41Z" transform="translate(-8.73 -8.63)"/><path class="cls-1" d="M242.47,364.62v3.74h-2.73V357.77h2.73v3.73h14.71v3.12Z" transform="translate(-8.73 -8.63)"/><path class="cls-1" d="M239.74,352.93h17.44V356H239.74Z" transform="translate(-8.73 -8.63)"/><path class="cls-1" d="M248.34,339.09c6.36,0,9.14,1.73,9.14,5.75,0,3.76-2.72,5.59-9.19,5.59-6.28,0-8.81-2.14-8.81-5.72C239.48,340.9,242.29,339.09,248.34,339.09Zm-.08,8.14c4.15,0,6.6-.64,6.6-2.47s-2.27-2.47-6.6-2.47c-4,0-6.15.59-6.15,2.47S244.38,347.23,248.26,347.23Z" transform="translate(-8.73 -8.63)"/><path class="cls-1" d="M257.18,336.65H239.74v-3.53c9.63-3.61,11.49-4.3,12.34-4.51v0c-2.09.13-4.67.16-7.52.16h-4.82v-2.81h17.44v3.4c-10.28,3.74-12.14,4.38-12.93,4.61v0c2.16-.13,4.71-.13,7.85-.13h5.08Z" transform="translate(-8.73 -8.63)"/><path class="cls-2" d="M82,204.74c.3,2.77,1.42,5.2,4.46,5.2s4-1.84,4-4.36c0-2.73-1.32-4.36-5.49-6.34-5.68-2.73-7.93-5.15-7.93-10.16,0-5.35,3.43-9,9.4-9,7.5,0,9.31,5.1,9.41,9.46H89.94c-.15-1.93-.64-4.76-3.68-4.76-2.35,0-3.38,1.54-3.38,3.82,0,2.43,1.08,3.56,5,5.4,5.93,2.77,8.62,5.45,8.62,11,0,5.3-3.23,9.66-10.24,9.66-7.64,0-9.94-4.95-10.13-9.95Z" transform="translate(-8.73 -8.63)"/><path class="cls-2" d="M105.17,185.81h-7.1v-5.25H118.2v5.25h-7.11V214.1h-5.92Z" transform="translate(-8.73 -8.63)"/><path class="cls-2" d="M127,180.56v23.09c0,2.72.69,6,4.36,6s4.26-2.73,4.26-5.94V180.56h5.93v23.23c0,6-2.3,10.9-10.29,10.9S121,210.08,121,203.79V180.56Z" transform="translate(-8.73 -8.63)"/><path class="cls-2" d="M146.8,180.56h8.62c8.52,0,11.85,5.55,11.85,16.1,0,11.29-3.18,17.44-12.29,17.44H146.8Zm6,28.63h2.11c4.65,0,6.27-3.51,6.27-12.53,0-7.68-1.42-11.09-6.22-11.09h-2.16Z" transform="translate(-8.73 -8.63)"/><path class="cls-2" d="M188.43,199.19H177.75V209H189.7L189,214.1H171.92V180.56h17v5.25H177.75V194h10.68Z" transform="translate(-8.73 -8.63)"/><path class="cls-2" d="M193.32,214.1V180.56H200c6.85,18.53,8.18,22.09,8.57,23.73h0c-.25-4-.3-9-.3-14.46v-9.27h5.34V214.1h-6.46c-7.11-19.77-8.33-23.33-8.77-24.87h-.05c.24,4.16.24,9.07.24,15.11v9.76Z" transform="translate(-8.73 -8.63)"/><path class="cls-2" d="M223.94,185.81h-7.11v-5.25H237v5.25h-7.11V214.1h-5.92Z" transform="translate(-8.73 -8.63)"/><path class="cls-3" d="M12,232.14V240H8.73V221.56h5.69c3.39,0,5.32,1.77,5.32,5,0,2.67-1.46,3.82-2.43,4.2,1.44.68,2.12,1.88,2.12,4.61v.73a22.61,22.61,0,0,0,.25,3.87H16.46a15.37,15.37,0,0,1-.3-3.9v-.65c0-2.48-.58-3.32-2.7-3.32Zm0-2.68H13.6c2,0,2.81-.84,2.81-2.69a2.23,2.23,0,0,0-2.48-2.54H12Z" transform="translate(-8.73 -8.63)"/><path class="cls-3" d="M31.54,231.81h-6v5.37h6.72L31.85,240H22.27V221.56h9.55v2.89H25.54V229h6Z" transform="translate(-8.73 -8.63)"/><path class="cls-3" d="M34.29,221.56h5.59c3.08,0,5.4,1.83,5.4,5.51s-2.1,5.45-5.65,5.45h-2V240H34.29Zm3.33,8.31h1.63c1.87,0,2.67-.92,2.67-2.86s-1-2.78-2.48-2.78H37.62Z" transform="translate(-8.73 -8.63)"/><path class="cls-3" d="M49,235.38,48.08,240H44.75l4.32-18.45H53.4L57.74,240H54.25l-.91-4.63Zm3.71-2.86c-.68-3.55-1.23-6.13-1.54-7.88h-.08c-.22,1.69-.83,4.47-1.51,7.88Z" transform="translate(-8.73 -8.63)"/><path class="cls-3" d="M60.8,240V233.5a1.59,1.59,0,0,0-.11-.6L56,221.56H59.7c1,2.89,2.34,6.46,2.89,8.48.68-2.26,2-5.73,2.89-8.48H69l-4.73,11.37a1.56,1.56,0,0,0-.11.62V240Z" transform="translate(-8.73 -8.63)"/><path class="cls-3" d="M81.66,233.14c0-3.13.06-6.73.11-8.83h-.08C81.05,227.83,80,234,78.8,240h-3c-.91-5.56-2-12.18-2.59-15.75H73.1c.11,2.15.19,6,.19,9.21V240h-3V221.56h5c1,5.1,1.81,10.25,2.2,12.95h0c.38-2.51,1.54-8.07,2.5-12.95h4.87V240H81.66Z" transform="translate(-8.73 -8.63)"/><path class="cls-3" d="M97.35,231.81h-6v5.37h6.71L97.65,240H88.07V221.56h9.55v2.89H91.35V229h6Z" transform="translate(-8.73 -8.63)"/><path class="cls-3" d="M100.1,240V221.56h3.77c3.85,10.19,4.59,12.16,4.82,13.06h0c-.13-2.21-.16-4.94-.16-8v-5.1h3V240h-3.64c-4-10.87-4.68-12.83-4.92-13.68h0c.14,2.29.14,5,.14,8.31V240Z" transform="translate(-8.73 -8.63)"/><path class="cls-3" d="M117.3,224.45h-4v-2.89h11.31v2.89h-4V240H117.3Z" transform="translate(-8.73 -8.63)"/><path class="cls-4" d="M20.58,284.87l-3.91-15.62h3l1.45,6.63c.46,2.1.88,4.4,1.07,6h0c.19-1.57.77-3.9,1.22-5.95l1.39-6.7h3l-4,15.62Z" transform="translate(-8.73 -8.63)"/><path class="cls-4" d="M30.67,281l-.79,3.92H27.06l3.66-15.62h3.65l3.69,15.62h-3L34.33,281Zm3.15-2.42c-.59-3-1-5.19-1.31-6.67h-.07c-.19,1.43-.7,3.79-1.28,6.67Z" transform="translate(-8.73 -8.63)"/><path class="cls-4" d="M42.23,278.21v6.66h-2.8V269.25h4.82c2.87,0,4.5,1.5,4.5,4.27a3.54,3.54,0,0,1-2,3.56c1.21.57,1.79,1.59,1.79,3.89v.63a20.13,20.13,0,0,0,.21,3.27H46a12.47,12.47,0,0,1-.26-3.3V281c0-2.1-.49-2.81-2.28-2.81Zm0-2.26h1.32c1.7,0,2.38-.72,2.38-2.29a1.88,1.88,0,0,0-2.1-2.14h-1.6Z" transform="translate(-8.73 -8.63)"/><path class="cls-4" d="M53.71,269.25v15.62H50.89V269.25Z" transform="translate(-8.73 -8.63)"/><path class="cls-4" d="M58.86,281l-.79,3.92H55.25l3.65-15.62h3.66l3.68,15.62H63.29L62.52,281ZM62,278.53c-.58-3-1-5.19-1.3-6.67h-.07c-.19,1.43-.7,3.79-1.28,6.67Z" transform="translate(-8.73 -8.63)"/><path class="cls-4" d="M67.59,269.25h4.8c2.75,0,4.24,1.5,4.24,4,0,2-.93,2.93-1.81,3.26,1.11.43,2.28,1.45,2.28,3.8,0,3-2,4.59-4.75,4.59H67.59Zm4.13,6.23c1.74,0,2.21-.66,2.21-2s-.72-2-2.12-2H70.37v4Zm-1.35,7.22H72c1.4,0,2.22-.71,2.22-2.46s-.68-2.56-2.52-2.56H70.37Z" transform="translate(-8.73 -8.63)"/><path class="cls-4" d="M79.05,269.25h2.82V282.5h5.41L87,284.87h-8Z" transform="translate(-8.73 -8.63)"/><path class="cls-4" d="M96.55,277.93H91.47v4.54h5.69l-.35,2.4H88.7V269.25h8.08v2.45H91.47v3.81h5.08Z" transform="translate(-8.73 -8.63)"/><path class="cls-4" d="M103.4,277.65V280H98.3v-2.38Z" transform="translate(-8.73 -8.63)"/><path class="cls-4" d="M108,278.21v6.66h-2.8V269.25h4.82c2.87,0,4.5,1.5,4.5,4.27a3.54,3.54,0,0,1-2,3.56c1.21.57,1.79,1.59,1.79,3.89v.63a20.13,20.13,0,0,0,.21,3.27h-2.72a12.47,12.47,0,0,1-.26-3.3V281c0-2.1-.49-2.81-2.28-2.81Zm0-2.26h1.32c1.7,0,2.38-.72,2.38-2.29a1.88,1.88,0,0,0-2.1-2.14H108Z" transform="translate(-8.73 -8.63)"/><path class="cls-4" d="M119.29,281l-.8,3.92h-2.82l3.66-15.62H123l3.68,15.62h-3l-.77-3.92Zm3.14-2.42c-.58-3-1.05-5.19-1.3-6.67h-.07c-.19,1.43-.7,3.79-1.28,6.67Z" transform="translate(-8.73 -8.63)"/><path class="cls-4" d="M129,271.7h-3.38v-2.45h9.58v2.45h-3.38v13.17H129Z" transform="translate(-8.73 -8.63)"/><path class="cls-4" d="M144.61,277.93h-5.08v4.54h5.68l-.34,2.4h-8.11V269.25h8.08v2.45h-5.31v3.81h5.08Z" transform="translate(-8.73 -8.63)"/><path class="cls-3" d="M125.35,353.26c0-2.21,0-5.15.08-6.87h-.08c-.43,3-1,7.77-1.69,11.4H121c-.51-3.78-1.11-8.56-1.5-11.42h-.1c.06,1.66.12,4.54.12,7v4.43h-2.93V343.62h4.69c.47,3,.94,6.51,1.16,8.5h.06c.28-2.12.84-5.18,1.37-8.5h4.62v14.17h-3.12Z" transform="translate(-8.73 -8.63)"/><path class="cls-3" d="M133.48,354.75l-.49,3h-3.32l2.85-14.17h4.67l2.89,14.17h-3.45l-.51-3Zm2.21-2.73c-.34-2.08-.67-4.39-.84-5.69h-.1c-.15,1.36-.5,3.61-.84,5.69Z" transform="translate(-8.73 -8.63)"/><path class="cls-3" d="M144.46,352v5.79h-3.27V343.62h4.88c2.78,0,4.22,1.35,4.22,3.93a3.14,3.14,0,0,1-1.87,3.21c1.14.5,1.67,1.41,1.67,3.44v.51a24,24,0,0,0,.15,3.08H147a14.26,14.26,0,0,1-.23-3.19v-.48c0-1.68-.34-2.12-1.61-2.12Zm0-2.46h.77c1.27,0,1.74-.44,1.74-1.82,0-1.16-.43-1.68-1.52-1.68h-1Z" transform="translate(-8.73 -8.63)"/><path class="cls-3" d="M152,343.62h3.23v5.9c.71-1.43,2.1-4.3,3-5.9h3.68l-3.28,5.54,3.34,8.63h-3.62l-2-5.81-1,1.51v4.3H152Z" transform="translate(-8.73 -8.63)"/><path class="cls-3" d="M170.41,351.79H166v3.38h5l-.39,2.62h-7.83V343.62h7.83v2.67H166v2.83h4.39Z" transform="translate(-8.73 -8.63)"/><path class="cls-3" d="M174.56,346.29h-2.85v-2.67h9v2.67h-2.83v11.5h-3.32Z" transform="translate(-8.73 -8.63)"/><path class="cls-5" d="M450.67,316c1,.09,6.25.48,6.25,6.07,0,5.76-5.05,6.42-10.49,6.42-6.54,0-10.4-1.91-10.4-6.63,0-5.35,4.6-5.77,6.22-5.86v3.59c-.69.06-3.17.09-3.17,2.33s2.78,2.84,7.41,2.84c3.82,0,7.41-.39,7.41-2.75,0-2.15-2.45-2.33-3.23-2.42Z" transform="translate(-8.73 -8.63)"/><path class="cls-5" d="M447.92,310.16h8.64v3.58H436.33v-6.18c0-3.68,1.94-5.77,5.53-5.77,2.93,0,4.18,1.58,4.6,2.63.75-1.55,2.06-2.3,5.05-2.3h.81a25.32,25.32,0,0,0,4.24-.27v3.5a17.26,17.26,0,0,1-4.27.32h-.72c-2.72,0-3.65.63-3.65,2.93Zm-2.92,0v-1.71c0-2.18-.93-3.05-3-3.05-1.76,0-2.78.84-2.78,2.69v2.07Z" transform="translate(-8.73 -8.63)"/><path class="cls-5" d="M451.48,295.73l5.08,1v3.62l-20.23-4.69V291l20.23-4.72v3.79l-5.08,1Zm-3.14-4c-3.88.75-6.72,1.35-8.63,1.68v.09c1.85.24,4.9.89,8.63,1.64Z" transform="translate(-8.73 -8.63)"/><path class="cls-5" d="M450.91,281.42c1.68-.18,3.14-.87,3.14-2.72s-1.11-2.42-2.63-2.42-2.63.8-3.82,3.34c-1.65,3.47-3.11,4.84-6.13,4.84-3.23,0-5.44-2.09-5.44-5.73,0-4.57,3.08-5.68,5.71-5.74v3.56c-1.17.09-2.87.39-2.87,2.24,0,1.43.93,2.06,2.3,2.06s2.15-.66,3.26-3c1.67-3.61,3.29-5.26,6.66-5.26,3.2,0,5.83,2,5.83,6.25,0,4.66-3,6.06-6,6.18Z" transform="translate(-8.73 -8.63)"/><path class="cls-5" d="M436.33,270.06v-3.61h8v-4.87h-8v-3.65h20.23v3.65h-9.08v4.87h9.08v3.61Z" transform="translate(-8.73 -8.63)"/><path class="cls-2" d="M346.27,273.7c.91.08,5.64.44,5.64,5.48,0,5.21-4.56,5.81-9.48,5.81-5.91,0-9.39-1.73-9.39-6,0-4.83,4.16-5.21,5.61-5.29v3.24c-.62.06-2.86.08-2.86,2.11s2.51,2.56,6.7,2.56c3.45,0,6.69-.35,6.69-2.48,0-1.94-2.21-2.11-2.91-2.19Z" transform="translate(-8.73 -8.63)"/><path class="cls-2" d="M343.78,268.41h7.8v3.24H333.31v-5.59c0-3.32,1.75-5.21,5-5.21,2.65,0,3.78,1.43,4.16,2.38.67-1.41,1.86-2.08,4.56-2.08h.73a23.55,23.55,0,0,0,3.83-.24v3.15a15.07,15.07,0,0,1-3.86.3h-.64c-2.46,0-3.3.57-3.3,2.65Zm-2.64,0v-1.54c0-2-.84-2.75-2.67-2.75a2.2,2.2,0,0,0-2.52,2.43v1.86Z" transform="translate(-8.73 -8.63)"/><path class="cls-2" d="M333.31,255.1h18.27v3.26H333.31Z" transform="translate(-8.73 -8.63)"/><path class="cls-2" d="M346.48,249.7c1.51-.16,2.84-.78,2.84-2.46s-1-2.18-2.38-2.18-2.38.72-3.45,3c-1.49,3.13-2.81,4.37-5.54,4.37-2.91,0-4.91-1.89-4.91-5.18,0-4.13,2.78-5.13,5.15-5.18v3.21c-1.05.08-2.59.35-2.59,2,0,1.3.84,1.87,2.08,1.87s1.95-.6,2.94-2.73c1.52-3.27,3-4.75,6-4.75,2.89,0,5.27,1.78,5.27,5.64,0,4.21-2.7,5.48-5.43,5.59Z" transform="translate(-8.73 -8.63)"/><path class="cls-2" d="M333.31,236.17h18.27v3.27H333.31Z" transform="translate(-8.73 -8.63)"/><path class="cls-2" d="M346.48,230.77c1.51-.16,2.84-.78,2.84-2.45s-1-2.19-2.38-2.19-2.38.73-3.45,3c-1.49,3.13-2.81,4.37-5.54,4.37-2.91,0-4.91-1.88-4.91-5.18,0-4.13,2.78-5.13,5.15-5.18v3.21c-1.05.08-2.59.35-2.59,2,0,1.29.84,1.86,2.08,1.86s1.95-.6,2.94-2.73c1.52-3.26,3-4.75,6-4.75,2.89,0,5.27,1.78,5.27,5.64,0,4.21-2.7,5.48-5.43,5.59Z" transform="translate(-8.73 -8.63)"/><path class="cls-2" d="M401.57,114.06c-.07.89-.42,5.49-5.33,5.49-5.06,0-5.64-4.44-5.64-9.22,0-5.75,1.68-9.14,5.83-9.14,4.7,0,5.07,4,5.14,5.46h-3.15c-.05-.6-.07-2.78-2-2.78s-2.5,2.44-2.5,6.51c0,3.36.34,6.52,2.42,6.52,1.89,0,2.05-2.16,2.12-2.84Z" transform="translate(-8.73 -8.63)"/><path class="cls-2" d="M406.72,111.64v7.59h-3.15V101.45H409c3.23,0,5.07,1.71,5.07,4.86,0,2.58-1.39,3.68-2.31,4,1.36.65,2,1.81,2,4.43v.71a22.58,22.58,0,0,0,.23,3.73H411a14.8,14.8,0,0,1-.29-3.75v-.63c0-2.39-.55-3.21-2.57-3.21Zm0-2.57h1.5c1.92,0,2.68-.81,2.68-2.6a2.13,2.13,0,0,0-2.36-2.44h-1.82Z" transform="translate(-8.73 -8.63)"/><path class="cls-2" d="M419.67,101.45v17.78H416.5V101.45Z" transform="translate(-8.73 -8.63)"/><path class="cls-2" d="M424.93,114.27c.15,1.47.76,2.76,2.39,2.76s2.12-1,2.12-2.31-.71-2.32-2.94-3.37c-3-1.44-4.25-2.73-4.25-5.38,0-2.84,1.84-4.78,5-4.78,4,0,5,2.71,5,5h-3.12c-.08-1-.34-2.52-2-2.52-1.26,0-1.81.81-1.81,2s.57,1.89,2.65,2.86c3.18,1.47,4.62,2.89,4.62,5.86,0,2.81-1.73,5.12-5.49,5.12-4.1,0-5.33-2.63-5.43-5.28Z" transform="translate(-8.73 -8.63)"/><path class="cls-2" d="M438.08,101.45v17.78h-3.17V101.45Z" transform="translate(-8.73 -8.63)"/><path class="cls-2" d="M443.34,114.27c.16,1.47.76,2.76,2.39,2.76s2.13-1,2.13-2.31-.71-2.32-2.95-3.37c-3-1.44-4.25-2.73-4.25-5.38,0-2.84,1.84-4.78,5-4.78,4,0,5,2.71,5,5h-3.12c-.08-1-.34-2.52-2-2.52-1.26,0-1.81.81-1.81,2s.58,1.89,2.65,2.86c3.18,1.47,4.62,2.89,4.62,5.86,0,2.81-1.73,5.12-5.49,5.12-4.09,0-5.33-2.63-5.43-5.28Z" transform="translate(-8.73 -8.63)"/><path class="cls-4" d="M329.33,324.43v11.89c0,1.88.53,3.73,2.78,3.73s2.8-1.55,2.8-3.73V324.43h1.85v11.92c0,3.1-1.13,5.32-4.7,5.32s-4.63-2.1-4.63-5.2v-12Z" transform="translate(-8.73 -8.63)"/><path class="cls-4" d="M341.86,333.57v7.83H340v-17h4.45c2.85,0,4.33,1.6,4.33,4.37,0,2.55-1.23,3.63-2.28,4,1.58.54,2.08,1.94,2.08,4.32v.67a17.81,17.81,0,0,0,.25,3.63h-1.88a17.13,17.13,0,0,1-.25-3.68v-.57c0-2.4-.47-3.58-2.77-3.58Zm0-1.57H344c2.07,0,2.85-1.17,2.85-3.15,0-1.7-.78-2.85-2.65-2.85h-2.35Z" transform="translate(-8.73 -8.63)"/><path class="cls-4" d="M360.58,341.4h-1.45a11.87,11.87,0,0,1-.12-1.83,3.3,3.3,0,0,1-3.4,2.08c-3.68,0-4.65-3.8-4.65-8.72,0-5.85,1.8-8.75,5.25-8.75,4.07,0,4.35,3.62,4.4,4.62h-1.88c-.05-.6-.17-3-2.57-3s-3.25,2.83-3.25,7.1.65,7.12,3,7.12,2.83-1.9,2.83-5.47v-.82h-2.95V332.1h4.77Z" transform="translate(-8.73 -8.63)"/><path class="cls-4" d="M371.18,333.25h-5.67v6.5h6.29l-.25,1.65h-7.89v-17h7.79v1.65h-5.94v5.52h5.67Z" transform="translate(-8.73 -8.63)"/><path class="cls-4" d="M373.88,341.4v-17h2.3c4.7,11.74,5.35,13.34,5.58,14.07h0c-.13-2.28-.15-4.82-.15-7.6v-6.47h1.75v17h-2.2c-4.87-12.35-5.47-13.9-5.67-14.57h0c.13,2.12.15,4.9.15,7.95v6.62Z" transform="translate(-8.73 -8.63)"/><path class="cls-4" d="M388.81,326.08H385v-1.65h9.42v1.65h-3.77V341.4h-1.87Z" transform="translate(-8.73 -8.63)"/><path class="cls-2" d="M327.24,348.34h4c3.92,0,5.45,2.42,5.45,7,0,4.92-1.46,7.59-5.65,7.59h-3.76ZM330,360.8h1c2.14,0,2.89-1.53,2.89-5.46,0-3.34-.66-4.82-2.86-4.82h-1Z" transform="translate(-8.73 -8.63)"/><path class="cls-2" d="M346.38,356.44h-4.91v4.25H347l-.33,2.24h-7.84V348.34h7.81v2.29h-5.13v3.55h4.91Z" transform="translate(-8.73 -8.63)"/><path class="cls-2" d="M348.63,348.34h7.83v2.29h-5.13v3.74h4.84v2.27h-4.84v6.29h-2.7Z" transform="translate(-8.73 -8.63)"/><path class="cls-2" d="M359.84,359.27l-.77,3.66h-2.72l3.54-14.59h3.53L367,362.93h-2.86l-.74-3.66Zm3-2.27c-.56-2.8-1-4.84-1.26-6.22h-.07c-.18,1.33-.67,3.53-1.24,6.22Z" transform="translate(-8.73 -8.63)"/><path class="cls-2" d="M370.9,348.34v10c0,1.19.31,2.61,2,2.61s2-1.19,2-2.59V348.34h2.72v10.11c0,2.6-1.05,4.74-4.72,4.74s-4.69-2-4.69-4.74V348.34Z" transform="translate(-8.73 -8.63)"/><path class="cls-2" d="M380,348.34h2.73v12.37H388l-.27,2.22H380Z" transform="translate(-8.73 -8.63)"/><path class="cls-2" d="M389.58,350.63h-3.26v-2.29h9.25v2.29h-3.26v12.3h-2.73Z" transform="translate(-8.73 -8.63)"/><path class="cls-3" d="M253.24,309.6c-.1,1.13-.53,7-6.77,7-6.43,0-7.17-5.64-7.17-11.71,0-7.3,2.14-11.6,7.4-11.6,6,0,6.44,5.14,6.54,6.94h-4c-.07-.77-.1-3.54-2.6-3.54s-3.17,3.1-3.17,8.27c0,4.27.43,8.27,3.07,8.27,2.4,0,2.6-2.74,2.7-3.6Z" transform="translate(-8.73 -8.63)"/><path class="cls-3" d="M259.77,306.53v9.64h-4V293.59h6.9c4.11,0,6.44,2.17,6.44,6.17,0,3.27-1.77,4.67-2.93,5.14,1.73.83,2.56,2.3,2.56,5.63v.9a29.19,29.19,0,0,0,.3,4.74h-3.9a18.91,18.91,0,0,1-.37-4.77v-.8c0-3-.7-4.07-3.26-4.07Zm0-3.27h1.9c2.44,0,3.41-1,3.41-3.3,0-2-.94-3.1-3-3.1h-2.3Z" transform="translate(-8.73 -8.63)"/><path class="cls-3" d="M283.41,306.13h-7.27v6.57h8.14l-.5,3.47h-11.6V293.59h11.57v3.54h-7.61v5.5h7.27Z" transform="translate(-8.73 -8.63)"/><path class="cls-3" d="M286.75,293.59h5.86c5.81,0,8.07,3.74,8.07,10.84,0,7.6-2.16,11.74-8.37,11.74h-5.56Zm4.06,19.27h1.44c3.16,0,4.27-2.36,4.27-8.43,0-5.17-1-7.47-4.24-7.47h-1.47Z" transform="translate(-8.73 -8.63)"/><path class="cls-3" d="M307.88,293.59v22.58h-4V293.59Z" transform="translate(-8.73 -8.63)"/><path class="cls-3" d="M314.92,297.13h-4.84v-3.54h13.71v3.54H319v19h-4Z" transform="translate(-8.73 -8.63)"/><path class="cls-3" d="M345.29,309.6c-.1,1.13-.53,7-6.77,7-6.43,0-7.16-5.64-7.16-11.71,0-7.3,2.13-11.6,7.4-11.6,6,0,6.43,5.14,6.53,6.94h-4c-.07-.77-.1-3.54-2.6-3.54s-3.17,3.1-3.17,8.27c0,4.27.44,8.27,3.07,8.27,2.4,0,2.6-2.74,2.7-3.6Z" transform="translate(-8.73 -8.63)"/><path class="cls-3" d="M351.73,310.5l-1.14,5.67h-4l5.23-22.58H357l5.26,22.58h-4.23L357,310.5Zm4.5-3.5c-.84-4.34-1.5-7.5-1.87-9.64h-.1c-.27,2.07-1,5.47-1.83,9.64Z" transform="translate(-8.73 -8.63)"/><path class="cls-3" d="M368.26,306.53v9.64h-4V293.59h6.9c4.11,0,6.44,2.17,6.44,6.17,0,3.27-1.77,4.67-2.94,5.14,1.74.83,2.57,2.3,2.57,5.63v.9a29.19,29.19,0,0,0,.3,4.74h-3.9a18.91,18.91,0,0,1-.37-4.77v-.8c0-3-.7-4.07-3.26-4.07Zm0-3.27h1.9c2.44,0,3.4-1,3.4-3.3,0-2-.93-3.1-3-3.1h-2.3Z" transform="translate(-8.73 -8.63)"/><path class="cls-3" d="M380.67,293.59h5.86c5.81,0,8.07,3.74,8.07,10.84,0,7.6-2.16,11.74-8.37,11.74h-5.56Zm4.06,19.27h1.44c3.16,0,4.27-2.36,4.27-8.43,0-5.17-1-7.47-4.24-7.47h-1.47Z" transform="translate(-8.73 -8.63)"/><path class="cls-1" d="M371.9,195.86c-5.52,0-11.86-.1-15.56-.19v.14c6.2,1.08,17.14,2.87,27.65,4.94v5.13c-9.79,1.55-21.45,3.39-27.74,4.42v.19c3.79-.19,10.61-.33,16.22-.33H384v5.18h-32.5v-8.52c9-1.65,18.05-3.11,22.81-3.76V203c-4.42-.66-14.21-2.64-22.81-4.28V190.4H384v5.46Z" transform="translate(-8.73 -8.63)"/><path class="cls-1" d="M367.53,165.27c11.86,0,17,3.15,17,10.49,0,6.87-5.09,10.21-17.14,10.21-11.71,0-16.41-3.9-16.41-10.44C351,168.56,356.25,165.27,367.53,165.27Zm-.15,14.87c7.73,0,12.29-1.18,12.29-4.52,0-3.53-4.22-4.52-12.29-4.52-7.53,0-11.47,1.09-11.47,4.52S360.14,180.14,367.38,180.14Z" transform="translate(-8.73 -8.63)"/><path class="cls-1" d="M370.12,155.15H384v5.65h-32.5v-9.75c0-5.78,3.12-9.08,8.89-9.08,4.7,0,6.72,2.5,7.39,4.14,1.2-2.44,3.31-3.62,8.11-3.62h1.3a42.27,42.27,0,0,0,6.81-.42v5.5a27.41,27.41,0,0,1-6.86.52H376c-4.37,0-5.86,1-5.86,4.61Zm-4.7,0v-2.68c0-3.44-1.49-4.8-4.76-4.8-2.83,0-4.46,1.31-4.46,4.23v3.25Z" transform="translate(-8.73 -8.63)"/><path class="cls-1" d="M356.58,133v6.82h-5.09V120.51h5.09v6.83H384V133Z" transform="translate(-8.73 -8.63)"/><path class="cls-1" d="M384,99.24v4.33a24.68,24.68,0,0,1-2.78.28c2.59,1.42,3.36,3.63,3.36,6.31,0,6.68-6.05,9.08-16.61,9.08-11.86,0-16.94-3.95-16.94-10.77,0-8.62,7.53-9.09,9.45-9.18v5.6c-1.29.09-4.56.38-4.56,3.76,0,3.67,5,4.71,12,4.71,7.54,0,11.71-.89,11.71-4.52,0-3-2.35-4-7.15-4H370.7v4.28h-4.95V99.24Z" transform="translate(-8.73 -8.63)"/><path class="cls-1" d="M375.83,89.13l8.16,1.6v5.69L351.49,89V81.64L384,74.21v6l-8.16,1.56Zm-5-6.36c-6.24,1.18-10.8,2.12-13.87,2.64v.14c3,.38,7.87,1.41,13.87,2.59Z" transform="translate(-8.73 -8.63)"/><path class="cls-1" d="M384,52.47V56.8a27.24,27.24,0,0,1-2.78.28c2.59,1.41,3.36,3.62,3.36,6.3,0,6.69-6.05,9.09-16.61,9.09-11.86,0-16.94-4-16.94-10.78,0-8.61,7.53-9.08,9.45-9.18v5.6c-1.29.1-4.56.38-4.56,3.77,0,3.67,5,4.7,12,4.7,7.54,0,11.71-.89,11.71-4.51,0-3-2.35-4-7.15-4H370.7v4.28h-4.95V52.47Z" transform="translate(-8.73 -8.63)"/><path class="cls-1" d="M369.54,31.67V41.92H379V30.44l5,.71V47.52h-32.5V31.2h5.09V41.92h7.92V31.67Z" transform="translate(-8.73 -8.63)"/><path class="cls-4" d="M276,201.82v13.55h-2.49V201.82Z" transform="translate(-8.73 -8.63)"/><path class="cls-4" d="M278.5,215.37V201.82h2.82c2.89,7.49,3.44,8.93,3.61,9.59h0c-.11-1.62-.13-3.63-.13-5.84v-3.75h2.25v13.55h-2.72c-3-8-3.5-9.42-3.69-10.05h0c.11,1.69.11,3.67.11,6.11v3.94Z" transform="translate(-8.73 -8.63)"/><path class="cls-4" d="M291.37,203.94h-3v-2.12h8.46v2.12h-3v11.43h-2.5Z" transform="translate(-8.73 -8.63)"/><path class="cls-4" d="M305.18,209.35h-4.49v3.94h5l-.31,2.08h-7.17V201.82h7.15v2.12h-4.69v3.3h4.49Z" transform="translate(-8.73 -8.63)"/><path class="cls-4" d="M309.71,209.59v5.78h-2.47V201.82h4.26c2.53,0,4,1.3,4,3.71a3.06,3.06,0,0,1-1.82,3.08c1.07.5,1.59,1.38,1.59,3.38v.54a15.7,15.7,0,0,0,.19,2.84H313a11.22,11.22,0,0,1-.22-2.86V212c0-1.82-.43-2.44-2-2.44Zm0-2h1.17c1.51,0,2.1-.62,2.1-2a1.65,1.65,0,0,0-1.85-1.87h-1.42Z" transform="translate(-8.73 -8.63)"/><path class="cls-4" d="M324.31,209.35h-4.49v3.94h5l-.31,2.08h-7.17V201.82h7.15v2.12h-4.7v3.3h4.49Z" transform="translate(-8.73 -8.63)"/><path class="cls-4" d="M328.35,211.59c.12,1.12.6,2.1,1.88,2.1s1.66-.74,1.66-1.76-.55-1.76-2.3-2.56c-2.39-1.1-3.34-2.09-3.34-4.11s1.44-3.64,3.95-3.64c3.16,0,3.92,2.06,4,3.83h-2.45c-.06-.79-.27-1.93-1.55-1.93-1,0-1.42.62-1.42,1.55s.45,1.43,2.08,2.17c2.49,1.12,3.63,2.21,3.63,4.47s-1.36,3.9-4.31,3.9c-3.21,0-4.18-2-4.26-4Z" transform="translate(-8.73 -8.63)"/><path class="cls-4" d="M338.11,203.94h-3v-2.12h8.46v2.12h-3v11.43h-2.5Z" transform="translate(-8.73 -8.63)"/><path class="cls-3" d="M111.08,139.81a4.17,4.17,0,0,1-4.57,4c-4.48,0-4.83-3.9-4.83-7.22,0-4,1.31-7,5-7,4.06,0,4.29,3.12,4.34,4h-1.86a2.46,2.46,0,0,0-2.5-2.61c-2.65,0-3.07,3-3.07,5.67,0,2.91.4,5.87,3,5.87a2.63,2.63,0,0,0,2.64-2.69Z" transform="translate(-8.73 -8.63)"/><path class="cls-3" d="M115.29,137.26v6.38h-1.85V129.79h4.4c2.83,0,4.29,1.31,4.29,3.57a3.08,3.08,0,0,1-2.26,3.25c1.56.45,2.06,1.59,2.06,3.53v.55a11.82,11.82,0,0,0,.25,2.95h-1.86a11.34,11.34,0,0,1-.25-3v-.47c0-2-.47-2.92-2.75-2.92Zm0-1.29h2.13c2.06,0,2.82-.95,2.82-2.57,0-1.38-.76-2.32-2.62-2.32h-2.33Z" transform="translate(-8.73 -8.63)"/><path class="cls-3" d="M132.28,137h-5.62v5.31h6.23l-.24,1.34h-7.82V129.79h7.72v1.35h-5.89v4.51h5.62Z" transform="translate(-8.73 -8.63)"/><path class="cls-3" d="M135,129.79h3.74c3.88,0,5.62,2.23,5.62,6.57,0,4.69-1.56,7.28-5.89,7.28H135Zm1.86,12.55h1.53c3.09,0,4.06-2,4.06-5.94,0-3.67-1.14-5.3-4-5.3h-1.56Z" transform="translate(-8.73 -8.63)"/><path class="cls-3" d="M148.86,129.79v13.85H147V129.79Z" transform="translate(-8.73 -8.63)"/><path class="cls-3" d="M154.26,131.14h-3.74v-1.35h9.33v1.35h-3.74v12.5h-1.85Z" transform="translate(-8.73 -8.63)"/><path class="cls-3" d="M175,139.81a4.19,4.19,0,0,1-4.58,4c-4.48,0-4.83-3.9-4.83-7.22,0-4,1.31-7,5-7,4.06,0,4.28,3.12,4.33,4h-1.86a2.46,2.46,0,0,0-2.5-2.61c-2.65,0-3.07,3-3.07,5.67,0,2.91.4,5.87,2.95,5.87a2.65,2.65,0,0,0,2.65-2.69Z" transform="translate(-8.73 -8.63)"/><path class="cls-3" d="M179.26,139.26,178,143.64h-1.83l4.06-13.85h2.4l4.18,13.85h-2l-1.23-4.38Zm4-1.37c-1-3.41-1.61-5.57-1.84-6.67h0c-.24,1.2-.91,3.69-1.75,6.67Z" transform="translate(-8.73 -8.63)"/><path class="cls-3" d="M190.5,137.26v6.38h-1.86V129.79h4.41c2.82,0,4.28,1.31,4.28,3.57a3.07,3.07,0,0,1-2.25,3.25c1.56.45,2,1.59,2,3.53v.55a11.82,11.82,0,0,0,.25,2.95h-1.86a11.41,11.41,0,0,1-.24-3v-.47c0-2-.47-2.92-2.75-2.92Zm0-1.29h2.13c2.05,0,2.82-.95,2.82-2.57,0-1.38-.77-2.32-2.62-2.32H190.5Z" transform="translate(-8.73 -8.63)"/><path class="cls-3" d="M200,129.79h3.74c3.88,0,5.62,2.23,5.62,6.57,0,4.69-1.56,7.28-5.9,7.28H200Zm1.86,12.55h1.53c3.09,0,4.06-2,4.06-5.94,0-3.67-1.14-5.3-4-5.3h-1.55Z" transform="translate(-8.73 -8.63)"/><path class="cls-6" d="M374.17,236.21H363.44v10.12h11.91l-.47,2.57H360V222.47h14.74V225H363.44v8.61h10.73Z" transform="translate(-8.73 -8.63)"/><path class="cls-6" d="M396.27,241.59c-.14,1.51-.94,7.7-8.74,7.7-8.55,0-9.21-7.43-9.21-13.78,0-7.7,2.5-13.43,9.59-13.43,7.75,0,8.17,6,8.27,7.59h-3.54c-.1-.89-.29-5-4.78-5-5.05,0-5.85,5.69-5.85,10.82,0,5.57.75,11.21,5.62,11.21,4.3,0,4.91-3.81,5.05-5.13Z" transform="translate(-8.73 -8.63)"/><path class="cls-6" d="M418.76,235.44c0,9-2.6,13.85-9.54,13.85-6.62,0-9.36-4.67-9.36-13.78s3.21-13.43,9.54-13.43C416,222.08,418.76,226.48,418.76,235.44Zm-15.26,0c0,7.55,1.84,11.32,5.86,11.32s5.76-3.69,5.76-11.28-1.84-10.87-5.81-10.87S403.5,228.24,403.5,235.44Z" transform="translate(-8.73 -8.63)"/><path class="cls-6" d="M423.9,248.9V222.47h4.35c8.88,18.3,10.11,20.79,10.53,21.92h.05c-.23-3.54-.28-7.51-.28-11.83V222.47h3.31V248.9H437.7c-9.21-19.23-10.35-21.64-10.73-22.69h0c.23,3.31.28,7.63.28,12.38V248.9Z" transform="translate(-8.73 -8.63)"/><path class="cls-6" d="M465.85,235.44c0,9-2.6,13.85-9.54,13.85-6.61,0-9.35-4.67-9.35-13.78s3.21-13.43,9.54-13.43C463.11,222.08,465.85,226.48,465.85,235.44Zm-15.26,0c0,7.55,1.85,11.32,5.86,11.32s5.76-3.69,5.76-11.28-1.84-10.87-5.81-10.87S450.59,228.24,450.59,235.44Z" transform="translate(-8.73 -8.63)"/><path class="cls-6" d="M490.23,237.65c0-4.94.09-9.88.19-12.69h-.05c-1.18,4.6-4.11,15.57-6.66,23.94h-3.4c-1.89-7.28-5-19.11-6.15-24H474c.19,3.07.33,8.91.33,13.43V248.9h-3.3V222.47h5.24c2.6,8.3,5.1,18.38,5.86,21.84h.05c.61-2.88,3.73-13.86,6.28-21.84h5.2V248.9h-3.45Z" transform="translate(-8.73 -8.63)"/><path class="cls-6" d="M503.55,222.47V248.9H500V222.47Z" transform="translate(-8.73 -8.63)"/><path class="cls-6" d="M526.65,241.59c-.14,1.51-.95,7.7-8.74,7.7-8.55,0-9.22-7.43-9.22-13.78,0-7.7,2.51-13.43,9.59-13.43,7.75,0,8.18,6,8.27,7.59H523c-.1-.89-.28-5-4.77-5-5.06,0-5.86,5.69-5.86,10.82,0,5.57.76,11.21,5.62,11.21,4.3,0,4.91-3.81,5.06-5.13Z" transform="translate(-8.73 -8.63)"/><path class="cls-5" d="M343,156.27V159c-.66.07-1.22.13-2.09.17a4.54,4.54,0,0,1,2.46,4.47c0,4.74-4.48,6.3-11.51,6.3-8,0-11.67-2.62-11.67-7.36,0-5.87,5.07-6.2,6.4-6.27v3.45c-.86.07-3.42.27-3.42,2.92s3.55,3.65,8.69,3.65c5.37,0,8.56-.7,8.56-3.45,0-2.45-2-3.12-5.74-3.12h-1.19V163h-3v-6.77Z" transform="translate(-8.73 -8.63)"/><path class="cls-5" d="M331.63,139.07c8,0,11.77,2.09,11.77,7.16,0,4.74-3.68,7-11.81,7-8,0-11.37-2.58-11.37-7.13C320.22,141.26,323.87,139.07,331.63,139.07Zm-.07,10.54c5.7,0,8.89-1,8.89-3.48s-3-3.48-8.86-3.48-8.39.93-8.39,3.48S326.15,149.61,331.56,149.61Z" transform="translate(-8.73 -8.63)"/><path class="cls-5" d="M343,132.24l-22.48,5.57v-3.75l9.95-2.19c3-.69,6.56-1.39,8.85-1.66v-.06c-2.19-.3-5.8-1.2-8.82-1.89l-10-2.16v-3.64l22.48,5.7Z" transform="translate(-8.73 -8.63)"/><path class="cls-5" d="M332.79,109.56v7.29H340V108.7l3,.43V120.3H320.55V109.19h3.08v7.66h6.11v-7.29Z" transform="translate(-8.73 -8.63)"/><path class="cls-5" d="M333.18,102.66H343v3.45H320.55V99.58c0-4,2.16-6.17,6-6.17,3.28,0,4.7,1.73,5.17,3,.79-1.85,2.39-2.62,5.64-2.62h.89a26.4,26.4,0,0,0,4.74-.3v3.39a19.12,19.12,0,0,1-4.77.36h-.8c-3.08,0-4.28.66-4.28,3.38Zm-2.85,0v-2.25c0-2.52-1.22-3.48-3.61-3.48-2,0-3.28,1-3.28,3.15v2.58Z" transform="translate(-8.73 -8.63)"/><path class="cls-5" d="M343,90.16H320.55v-4c13.5-5.17,15.78-6.07,16.85-6.34v0c-2.82.17-6.14.2-9.82.2h-7V76.8H343v3.88c-14.29,5.34-16.58,6.2-17.57,6.47v0c2.78-.17,6.23-.17,10.28-.17H343Z" transform="translate(-8.73 -8.63)"/><path class="cls-5" d="M334.24,59c-3.94,0-8.25-.07-10.74-.14V59c4.11.8,12.3,2.29,19.53,3.88V66c-6.56,1.19-15.32,2.78-19.59,3.51v.13c2.62-.13,7.42-.23,11.27-.23H343v3.22H320.55V67.45c6.5-1.39,13.56-2.68,16.75-3.18v0c-2.86-.44-10.52-2.09-16.75-3.49v-5.1H343V59Z" transform="translate(-8.73 -8.63)"/><path class="cls-5" d="M332.79,40.83v7.29H340V40l3,.43V51.57H320.55V40.46h3.08v7.66h6.11V40.83Z" transform="translate(-8.73 -8.63)"/><path class="cls-5" d="M343,37.38H320.55V33.33c13.5-5.17,15.78-6.06,16.85-6.33v0c-2.82.16-6.14.2-9.82.2h-7V24H343V27.9c-14.29,5.33-16.58,6.2-17.57,6.46v0c2.78-.16,6.23-.16,10.28-.16H343Z" transform="translate(-8.73 -8.63)"/><path class="cls-5" d="M323.63,17v4.87h-3.08V8.63h3.08v4.88H343V17Z" transform="translate(-8.73 -8.63)"/><path class="cls-1" d="M403,423.56v-6.88c0-3.93,2.24-6.17,6-6.17,3,0,4.49,1.47,5,2.81.67-1.72,2.25-3.55,5.86-3.55,4.42,0,7,2.84,7,7v6.77Zm9.64-5.89c0-2.78-1.12-3.62-3.36-3.62s-3.3,1.16-3.3,3.4V420h6.66ZM423.88,420v-2.78c0-2.35-1.3-3.68-4.14-3.68s-4.17,1.23-4.17,4.14V420Z" transform="translate(-8.73 -8.63)"/><path class="cls-1" d="M420.27,403.11l6.52,1.37v3.68L403,402.58v-4.77l23.78-5.68V396l-6.52,1.4ZM417,398.06c-5,1.05-8.45,1.82-10.6,2.17v.11c2.18.28,6,1.12,10.6,2.1Z" transform="translate(-8.73 -8.63)"/><path class="cls-1" d="M403,389.89V386.2h20.62V378l3.16.39v11.54Z" transform="translate(-8.73 -8.63)"/><path class="cls-1" d="M420.27,371.4l6.52,1.37v3.68L403,370.88v-4.77l23.78-5.69v3.86l-6.52,1.41Zm-3.23-5c-5,1-8.45,1.83-10.6,2.18v.1c2.18.28,6,1.12,10.6,2.11Z" transform="translate(-8.73 -8.63)"/><path class="cls-1" d="M426.79,358.18H403V353.9c14.27-5.47,16.7-6.42,17.82-6.7v0c-3,.18-6.49.22-10.39.22H403V344h23.78v4.11c-15.12,5.65-17.54,6.56-18.59,6.84v0c2.95-.17,6.59-.17,10.87-.17h7.72Z" transform="translate(-8.73 -8.63)"/><path class="cls-1" d="M420,326.33c1.26.11,7.19.63,7.19,6.91,0,6.63-6.21,7.3-12.35,7.3-7.44,0-12.17-2.11-12.17-7.54,0-6.11,5.4-6.56,7.15-6.63v3.68c-.8,0-4,.14-4,3,0,3.05,3.93,3.68,9.09,3.68,4.66,0,9.16-.49,9.16-3.54,0-2.74-3.06-3.05-4.07-3.16Z" transform="translate(-8.73 -8.63)"/><path class="cls-1" d="M416,312.09v7.72h7.65v-8.63l3.19.45v11.83H403V311.7h3.26v8.11h6.45v-7.72Z" transform="translate(-8.73 -8.63)"/><path class="cls-1" d="M403,308.44v-5.85c0-5.93,3.89-8.32,11.36-8.32,8,0,12.42,2.25,12.42,8.63v5.54Zm20.73-3.71V303c0-3.65-2.84-4.87-9.33-4.87-5.76,0-8.28,1.22-8.28,4.84v1.79Z" transform="translate(-8.73 -8.63)"/><path class="cls-4" d="M62.66,200c1.5.12,7.64.77,7.64,7.14,0,7-7.37,7.52-13.66,7.52-7.64,0-13.31-2-13.31-7.83,0-6.33,5.9-6.68,7.52-6.75v2.89c-.89.08-4.94.23-4.94,3.9,0,4.13,5.64,4.78,10.73,4.78,5.52,0,11.11-.61,11.11-4.59,0-3.51-3.78-4-5.09-4.13Z" transform="translate(-8.73 -8.63)"/><path class="cls-4" d="M56.56,181.61c9,0,13.74,2.12,13.74,7.79,0,5.4-4.63,7.64-13.66,7.64s-13.31-2.62-13.31-7.79C43.33,183.84,47.69,181.61,56.56,181.61Zm0,12.46c7.49,0,11.23-1.5,11.23-4.79s-3.66-4.7-11.19-4.7-10.77,1.5-10.77,4.74S49.42,194.07,56.56,194.07Z" transform="translate(-8.73 -8.63)"/><path class="cls-4" d="M43.71,177.4v-2.89H67.37v-9.34l2.54.39V177.4Z" transform="translate(-8.73 -8.63)"/><path class="cls-4" d="M43.71,162.47v-2.89H67.37v-9.34l2.54.39v11.84Z" transform="translate(-8.73 -8.63)"/><path class="cls-4" d="M57.33,135.93v8.76h10V135l2.54.39v12.19H43.71v-12h2.55v9.19h8.53v-8.76Z" transform="translate(-8.73 -8.63)"/><path class="cls-4" d="M62.66,117.87c1.5.12,7.64.77,7.64,7.14,0,7-7.37,7.53-13.66,7.53-7.64,0-13.31-2-13.31-7.84,0-6.33,5.9-6.67,7.52-6.75v2.89c-.89.08-4.94.23-4.94,3.9,0,4.13,5.64,4.79,10.73,4.79,5.52,0,11.11-.62,11.11-4.6,0-3.51-3.78-4-5.09-4.13Z" transform="translate(-8.73 -8.63)"/><path class="cls-4" d="M46.26,110.5v5.83H43.71V101.78h2.55v5.83H69.91v2.89Z" transform="translate(-8.73 -8.63)"/><path class="cls-4" d="M43.71,96.08h26.2V99H43.71Z" transform="translate(-8.73 -8.63)"/><path class="cls-4" d="M56.56,76.44c9,0,13.74,2.12,13.74,7.79,0,5.4-4.63,7.64-13.66,7.64s-13.31-2.62-13.31-7.79C43.33,78.67,47.69,76.44,56.56,76.44Zm0,12.46c7.49,0,11.23-1.51,11.23-4.79s-3.66-4.7-11.19-4.7-10.77,1.5-10.77,4.74S49.42,88.9,56.56,88.9Z" transform="translate(-8.73 -8.63)"/><path class="cls-4" d="M69.91,72.23H43.71V68.68c18.14-7.25,20.61-8.26,21.73-8.6v0c-3.51.19-7.45.23-11.73.23h-10v-2.7h26.2V61c-19.06,7.52-21.45,8.45-22.49,8.75v0c3.28-.19,7.56-.23,12.27-.23H69.91Z" transform="translate(-8.73 -8.63)"/><path class="cls-1" d="M53.32,293.78v17.91h-3.5V293.78Z" transform="translate(-8.73 -8.63)"/><path class="cls-1" d="M56.79,311.69V293.78h4c4,9.89,4.82,11.8,5,12.67h0c-.14-2.14-.17-4.79-.17-7.73v-4.94h3.15v17.91H65c-4.19-10.56-4.91-12.46-5.17-13.28h0c.15,2.22.15,4.84.15,8.07v5.21Z" transform="translate(-8.73 -8.63)"/><path class="cls-1" d="M75.37,311.69l-4.85-17.91H74.3l1.79,7.59a68.61,68.61,0,0,1,1.33,6.91h.06c.23-1.8,1-4.48,1.5-6.83l1.74-7.67h3.67l-4.91,17.91Z" transform="translate(-8.73 -8.63)"/><path class="cls-1" d="M95.84,303.72h-6.3v5.22h7l-.44,2.75H86.1V293.78h10v2.8H89.54V301h6.3Z" transform="translate(-8.73 -8.63)"/><path class="cls-1" d="M101.5,306.69c.18,1.48.84,2.78,2.63,2.78a2.08,2.08,0,0,0,2.34-2.33c0-1.46-.78-2.33-3.23-3.39-3.36-1.45-4.69-2.75-4.69-5.42,0-2.86,2-4.82,5.55-4.82,4.42,0,5.49,2.73,5.55,5.06h-3.44c-.08-1-.37-2.55-2.16-2.55a1.82,1.82,0,0,0-2,2c0,1.3.64,1.91,2.92,2.89,3.5,1.48,5.09,2.91,5.09,5.9,0,2.83-1.91,5.16-6,5.16-4.51,0-5.87-2.65-6-5.32Z" transform="translate(-8.73 -8.63)"/><path class="cls-1" d="M115.2,296.58H111v-2.8h11.88v2.8H118.7v15.11h-3.5Z" transform="translate(-8.73 -8.63)"/><path class="cls-1" d="M136.76,305c0-3,.06-6.53.12-8.57h-.09c-.66,3.41-1.76,9.44-3,15.24h-3.15c-1-5.4-2.08-11.83-2.72-15.29h-.11c.11,2.09.2,5.84.2,8.94v6.35H124.8V293.78H130c1,4.94,1.91,9.94,2.31,12.56h0c.41-2.43,1.62-7.83,2.63-12.56h5.12v17.91h-3.36Z" transform="translate(-8.73 -8.63)"/><path class="cls-1" d="M153.24,303.72h-6.3v5.22H154l-.43,2.75H143.5V293.78h10v2.8h-6.59V301h6.3Z" transform="translate(-8.73 -8.63)"/><path class="cls-1" d="M156.13,311.69V293.78h4c4,9.89,4.83,11.8,5.06,12.67h0c-.15-2.14-.17-4.79-.17-7.73v-4.94h3.15v17.91h-3.82c-4.19-10.56-4.91-12.46-5.17-13.28h0c.14,2.22.14,4.84.14,8.07v5.21Z" transform="translate(-8.73 -8.63)"/><path class="cls-1" d="M174.2,296.58H170v-2.8h11.88v2.8H177.7v15.11h-3.5Z" transform="translate(-8.73 -8.63)"/><path class="cls-5" d="M115.83,161.17c0,7.92-1.93,12-7,12-4.78,0-6.84-4-6.84-12s2.4-11.68,7-11.68C113.8,149.53,115.83,153.36,115.83,161.17Zm-10.9,0c0,6.33,1.25,9.65,4,9.65s4-3.18,4-9.62-1.22-9.17-4-9.17S104.93,155.12,104.93,161.14Z" transform="translate(-8.73 -8.63)"/><path class="cls-5" d="M123.07,172.85l-5.69-23h3l2.47,10.7c.74,3.18,1.55,7.07,1.86,9.3h.07c.27-2.06,1.32-6.09,2.09-9.27l2.51-10.73h2.94l-5.92,23Z" transform="translate(-8.73 -8.63)"/><path class="cls-5" d="M145.13,162h-7.61v8.39H146l-.37,2.47H134.74v-23h10.77v2.51h-8v7.1h7.61Z" transform="translate(-8.73 -8.63)"/><path class="cls-5" d="M151.56,162.43v10.42h-2.8v-23H155c3.89,0,6,2.2,6,6,0,3.42-1.69,4.88-3.05,5.35,2.07.78,2.74,2.61,2.74,5.85V168a26.16,26.16,0,0,0,.34,4.87h-2.81a22.66,22.66,0,0,1-.33-4.94v-.78c0-3.25-.68-4.7-3.69-4.7Zm0-2.37h2.75c2.74,0,3.75-1.49,3.75-4.1,0-2.23-1-3.72-3.48-3.72h-3Z" transform="translate(-8.73 -8.63)"/><path class="cls-5" d="M164.53,149.87h5.28c5.41,0,7.75,3.72,7.75,10.93,0,7.79-2.17,12-8.13,12h-4.9Zm2.84,20.61h2c4,0,5.32-3.18,5.32-9.61,0-6-1.46-8.56-5.28-8.56h-2Z" transform="translate(-8.73 -8.63)"/><path class="cls-5" d="M183.82,149.87V166c0,2.4.67,4.84,3.62,4.84s3.62-2,3.62-4.84V149.87h2.81V166c0,4.16-1.53,7.24-6.5,7.24s-6.4-2.87-6.4-7.14V149.87Z" transform="translate(-8.73 -8.63)"/><path class="cls-5" d="M208.52,162h-7.61v8.39h8.46l-.38,2.47H198.13v-23h10.76v2.51h-8v7.1h7.61Z" transform="translate(-8.73 -8.63)"/><path class="cls-4" d="M249.71,212V216h-3.84V203.53h3.84v3.9h16.57V212Z" transform="translate(-8.73 -8.63)"/><path class="cls-4" d="M261.9,199.27l4.38.68v4.58l-20.41-3.93v-6.45l20.41-4v4.76l-4.38.71ZM258,196.22c-3,.48-6.32.92-8.19,1.16v.15c2,.2,5.2.68,8.19,1.15Z" transform="translate(-8.73 -8.63)"/><path class="cls-4" d="M266.28,180.93c-.69.09-6.35,2-7.17,2.07v.09c.82.09,6.51,2,7.17,2.16V190l-10.4-4.08-10,4v-5.08c.69-.06,5.74-1.86,6.41-1.92l0-.06c-.7-.09-5.69-1.87-6.38-2v-4.7l9.58,4,10.83-4.26Z" transform="translate(-8.73 -8.63)"/><path class="cls-4" d="M257.63,164.11v6.06h4.87v-6.86l3.78.53v10.82H245.87V163.84h3.84v6.33h4.08v-6.06Z" transform="translate(-8.73 -8.63)"/><path class="cls-4" d="M260.35,157.36c1.7-.12,2.85-.56,2.85-2s-.91-1.74-2.09-1.74c-1.39,0-2.24.68-3.48,3-1.81,3.46-3.36,4.76-6.35,4.76-3.51,0-5.81-2.07-5.81-6,0-4.67,3-6,6.11-6v4.4c-1.42.09-2.63.36-2.63,1.66,0,1,.67,1.48,1.82,1.48s1.78-.45,2.87-2.63c1.9-3.7,3.54-5.27,7-5.27s6.07,1.92,6.07,6.42c0,4.85-2.84,6.33-6.32,6.42Z" transform="translate(-8.73 -8.63)"/><path class="cls-5" d="M385.1,417.87h9.35v3.8H372.53v-6.55c0-3.9,2.11-6.11,6-6.11,3.18,0,4.54,1.68,5,2.78.81-1.64,2.23-2.43,5.47-2.43h.88a27.66,27.66,0,0,0,4.59-.29v3.71a18.93,18.93,0,0,1-4.63.34h-.77c-2.95,0-3.95.67-3.95,3.11Zm-3.18,0v-1.8c0-2.31-1-3.23-3.2-3.23-1.91,0-3,.88-3,2.85v2.18Z" transform="translate(-8.73 -8.63)"/><path class="cls-5" d="M372.53,402.26h21.92v3.83H372.53Z" transform="translate(-8.73 -8.63)"/><path class="cls-5" d="M388.33,395.93c1.82-.19,3.4-.92,3.4-2.88s-1.19-2.57-2.85-2.57-2.85.86-4.14,3.55c-1.78,3.67-3.37,5.13-6.64,5.13-3.49,0-5.89-2.22-5.89-6.08,0-4.85,3.33-6,6.18-6.08v3.77c-1.26.09-3.11.41-3.11,2.37,0,1.52,1,2.18,2.5,2.18s2.33-.69,3.53-3.19c1.81-3.83,3.56-5.58,7.22-5.58,3.46,0,6.31,2.09,6.31,6.62,0,4.94-3.24,6.43-6.51,6.56Z" transform="translate(-8.73 -8.63)"/><path class="cls-5" d="M372.53,383.89v-3.77h9.85c-2-1.2-7-3.95-9.85-5.66V370l8.58,5.55,13.34-5.64v4.24l-10.07,4,2.79,1.93h7.28v3.77Z" transform="translate(-8.73 -8.63)"/><path class="cls-4" d="M216.76,172.28V170h18.62v-7.27l2,.3v9.23Z" transform="translate(-8.73 -8.63)"/><path class="cls-4" d="M216.76,158.39h20.62v2.26H216.76Z" transform="translate(-8.73 -8.63)"/><path class="cls-4" d="M230.85,152.32l6.53,1.5v2.23l-20.62-4.93V148.2l20.62-5.08v2.41l-6.53,1.5Zm-2-4.84c-5.07,1.17-8.29,2-9.93,2.22v.06c1.79.31,5.5,1.12,9.93,2.14Z" transform="translate(-8.73 -8.63)"/><path class="cls-4" d="M216.76,140.93v-5.32c0-3,1.86-4.93,5-4.93,2.77,0,4,1.32,4.41,2.52.54-1.56,2-3.18,5.16-3.18,3.7,0,6,2.22,6,5.74v5.17Zm8.6-4.54c0-2.59-1.16-3.52-3.37-3.52s-3.34,1.08-3.34,3.22v2.64h6.71Zm10.17,2.34V136c0-2.41-1.49-3.7-4.19-3.7s-4.13,1.38-4.13,4.15v2.31Z" transform="translate(-8.73 -8.63)"/><path class="cls-4" d="M216.76,124.88h20.62v2.25H216.76Z" transform="translate(-8.73 -8.63)"/><path class="cls-4" d="M216.76,120.82v-2.26h18.62v-7.27l2,.3v9.23Z" transform="translate(-8.73 -8.63)"/><path class="cls-4" d="M216.76,106.93h20.62v2.26H216.76Z" transform="translate(-8.73 -8.63)"/><path class="cls-4" d="M218.77,100.38v4.54h-2V93.59h2v4.54h18.61v2.25Z" transform="translate(-8.73 -8.63)"/><path class="cls-4" d="M237.38,87h-7.86a1.17,1.17,0,0,0-.52.12l-12.24,5.2V89.83c3.5-1.38,8.32-3.37,10.21-4-2-.72-6.9-2.7-10.21-4V79.46L229,84.69a1.21,1.21,0,0,0,.55.12h7.83Z" transform="translate(-8.73 -8.63)"/><path class="cls-3" d="M391.93,215.94v-7.52H394v5.19h4.34v-4.87h2.05v4.87h6.82v2.33Z" transform="translate(-8.73 -8.63)"/><path class="cls-3" d="M391.93,204.31h15.31v2.35H391.93Z" transform="translate(-8.73 -8.63)"/><path class="cls-3" d="M407.24,195.61l-5.94,2.44v0l5.94,2.49V203l-7.86-3.65-7.45,3.51v-2.68l5.35-2.28v0l-5.35-2.31v-2.48l7.2,3.49,8.11-3.69Z" transform="translate(-8.73 -8.63)"/><path class="cls-3" d="M400.26,184.46v4.92h4.93v-5.5l2.05.29v7.53H391.93v-7.48H394v5.16h4.16v-4.92Z" transform="translate(-8.73 -8.63)"/><path class="cls-3" d="M391.93,182.14V178.4c0-3.77,2.51-5.29,7.32-5.29,5.17,0,8,1.43,8,5.49v3.54Zm13.35-2.37v-1.12c0-2.33-1.83-3.11-6-3.11-3.71,0-5.33.78-5.33,3.09v1.14Z" transform="translate(-8.73 -8.63)"/><path class="cls-3" d="M400.33,166.62h2.06v4.79h-2.06Z" transform="translate(-8.73 -8.63)"/><path class="cls-3" d="M400.53,162.47h6.71v2.32H391.93v-4.4c0-2.69,1.47-4.16,4.11-4.16,2.23,0,3.21,1.16,3.52,2,.55-1.25,1.63-1.77,3.84-1.77H404a18.7,18.7,0,0,0,3.23-.2v2.28a13.2,13.2,0,0,1-3.25.25h-.54c-2.1,0-2.92.44-2.92,2.28Zm-1.94,0V161c0-1.7-.83-2.35-2.46-2.35-1.38,0-2.24.65-2.24,2.12v1.75Z" transform="translate(-8.73 -8.63)"/><path class="cls-3" d="M403,151.78l4.2.87V155l-15.31-3.55v-3l15.31-3.62v2.46l-4.2.9ZM401,148.56c-3.2.67-5.44,1.16-6.82,1.39V150c1.4.18,3.84.72,6.82,1.35Z" transform="translate(-8.73 -8.63)"/><path class="cls-3" d="M394,142.48v3.29h-2.1v-8.92H394v3.28h13.21v2.35Z" transform="translate(-8.73 -8.63)"/><path class="cls-3" d="M400.26,128.06V133h4.93v-5.5l2.05.29v7.54H391.93v-7.49H394V133h4.16v-4.92Z" transform="translate(-8.73 -8.63)"/><path class="cls-1" d="M89.26,163c-2.58,0-6,0-8-.1v.1c3.46.49,9.08,1.18,13.33,1.94V168c-4.42.59-10,1.27-13.36,1.72v.12c1.94-.08,5.31-.15,8.18-.15h5.18V173H78v-5.37c3.46-.54,7.61-1.08,9.94-1.33v-.07c-2.48-.32-6.06-1-9.94-1.57v-5.31H94.56V163Z" transform="translate(-8.73 -8.63)"/><path class="cls-1" d="M87.54,148.1v5h3.95v-5.7l3.07.45v9H78v-9h3.12v5.25h3.31v-5Z" transform="translate(-8.73 -8.63)"/><path class="cls-1" d="M78,145.79v-4.74c0-4.32,2.45-6.09,8-6.09,5.89,0,8.62,1.75,8.62,6.24v4.59ZM91.66,142v-.71c0-1.77-1.25-2.28-5.77-2.28-3.78,0-5,.46-5,2.25V142Z" transform="translate(-8.73 -8.63)"/><path class="cls-1" d="M78,129.1H94.56v3.8H78Z" transform="translate(-8.73 -8.63)"/><path class="cls-1" d="M89.36,116.18c1.71,0,5.52.67,5.52,5.28S91.54,127,86.24,127c-6,0-8.55-1.89-8.55-5.69,0-4.42,3.39-5.09,5.36-5.14V120c-.94,0-2.36.05-2.36,1.37S82.21,123,86.26,123c3.56,0,5.65-.2,5.65-1.6S90.36,120,89.36,120Z" transform="translate(-8.73 -8.63)"/><path class="cls-1" d="M91,111l3.56.56v3.81L78,112.11v-5.35l16.57-3.32v4L91,108Zm-3.19-2.53c-2.43.39-5.13.76-6.66,1v.12c1.6.17,4.23.56,6.66,1Z" transform="translate(-8.73 -8.63)"/><path class="cls-1" d="M78,102.17V98.36H91.47V93.11l3.09.34v8.72Z" transform="translate(-8.73 -8.63)"/><path class="cls-5" d="M156.18,222H174c16.21,0,22.84,9.2,22.84,29.83,0,22.1-6.54,32.32-23.39,32.32H156.18Zm14.36,51.28h2.68c6.62,0,8.56-4.7,8.56-21.64,0-14.18-1.75-18.69-8.47-18.69h-2.77Z" transform="translate(-8.73 -8.63)"/><path class="cls-5" d="M237.38,257.8H218.51v14.83h21.36l-1.66,11.51H204.52V222h33.69v11.69h-19.7v12.43h18.87Z" transform="translate(-8.73 -8.63)"/><path class="cls-5" d="M245.94,222h20.72C277.8,222,284,227.6,284,237.92c0,7.73-3.5,11.41-7.37,12.79,4.42,1.85,9.12,5.71,9.12,15,0,12.25-7.55,18.42-19.52,18.42H245.94Zm17.77,24.21c5.25,0,6.45-2.12,6.45-6.9s-1.94-6.91-6.36-6.91h-3.95V246.2Zm-3.86,27.62h4.51c4.42,0,6.72-2.11,6.72-8.65,0-6.26-1.84-8.93-7.55-8.93h-3.68Z" transform="translate(-8.73 -8.63)"/><path class="cls-5" d="M299.89,233.68H287.65V222h38.67v11.69H314.16v50.46H299.89Z" transform="translate(-8.73 -8.63)"/><path class="cls-3" d="M286,188c0-3.08.05-6.62.11-8.68H286c-.63,3.45-1.67,9.56-2.88,15.43h-3c-.91-5.47-2-12-2.59-15.49h-.11c.11,2.12.2,5.92.2,9.06v6.43h-3V176.58h5c1,5,1.81,10.07,2.2,12.73h0c.38-2.47,1.54-7.93,2.5-12.73h4.86v18.14H286Z" transform="translate(-8.73 -8.63)"/><path class="cls-3" d="M303.89,185.53c0,6.62-1.85,9.51-6.14,9.51-4,0-6-2.84-6-9.57,0-6.53,2.28-9.16,6.1-9.16C302,176.31,303.89,179.23,303.89,185.53Zm-8.69-.08c0,4.31.68,6.86,2.64,6.86s2.64-2.36,2.64-6.86c0-4.21-.64-6.41-2.64-6.41S295.2,181.4,295.2,185.45Z" transform="translate(-8.73 -8.63)"/><path class="cls-3" d="M306.5,194.72V176.58h3.76c3.85,10,4.6,11.95,4.81,12.83h0c-.14-2.17-.16-4.85-.16-7.82v-5h3v18.14h-3.62c-4-10.69-4.68-12.62-4.93-13.45h0c.13,2.25.13,4.9.13,8.17v5.28Z" transform="translate(-8.73 -8.63)"/><path class="cls-3" d="M330.44,186.65h-6v5.28h6.71l-.41,2.79h-9.57V176.58h9.54v2.84h-6.27v4.42h6Z" transform="translate(-8.73 -8.63)"/><path class="cls-3" d="M336.77,194.72v-6.4a1.36,1.36,0,0,0-.12-.59L332,176.58h3.72c1,2.84,2.33,6.35,2.88,8.33.69-2.22,1.95-5.62,2.89-8.33H345l-4.73,11.17a1.6,1.6,0,0,0-.11.62v6.35Z" transform="translate(-8.73 -8.63)"/><path class="cls-5" d="M225.11,439.74c2.4.07,7.72.92,7.72,7.37s-4.67,7.75-12.08,7.75c-8.37,0-11.94-2.64-11.94-7.95,0-6.18,4.74-7.1,7.48-7.17v5.31c-1.3,0-3.29.07-3.29,1.92s2.13,2.3,7.79,2.3c5,0,7.88-.27,7.88-2.23s-2.16-1.92-3.56-2Z" transform="translate(-8.73 -8.63)"/><path class="cls-5" d="M220.65,422c8.5,0,12.18,2.3,12.18,8.06,0,5.39-3.74,7.75-12.28,7.75-8.24,0-11.77-2.64-11.77-7.95C208.78,424.4,212.59,422,220.65,422Zm-.1,10.26c5.69,0,8.09-.52,8.09-2.34s-2.23-2.36-8.09-2.36c-5.53,0-7.55.44-7.55,2.36S215.13,432.26,220.55,432.26Z" transform="translate(-8.73 -8.63)"/><path class="cls-5" d="M209.23,419.12V413.8h18.83v-7.34l4.32.48v12.18Z" transform="translate(-8.73 -8.63)"/><path class="cls-5" d="M209.23,404.61v-5.32h18.83V392l4.32.48v12.18Z" transform="translate(-8.73 -8.63)"/><path class="cls-5" d="M222.57,377.85v7h5.52v-8l4.29.62V390.1H209.23V377.54h4.35v7.34h4.63v-7Z" transform="translate(-8.73 -8.63)"/><path class="cls-5" d="M225.11,360.12c2.4.06,7.72.92,7.72,7.37s-4.67,7.75-12.08,7.75c-8.37,0-11.94-2.64-11.94-8,0-6.17,4.74-7.1,7.48-7.16v5.31c-1.3,0-3.29.07-3.29,1.92s2.13,2.3,7.79,2.3c5,0,7.88-.27,7.88-2.23s-2.16-1.92-3.56-2Z" transform="translate(-8.73 -8.63)"/><path class="cls-5" d="M213.58,354.25v4.56h-4.35V344.4h4.35v4.53h18.8v5.32Z" transform="translate(-8.73 -8.63)"/><path class="cls-5" d="M220.65,327.59c8.5,0,12.18,2.3,12.18,8.07,0,5.38-3.74,7.75-12.28,7.75-8.24,0-11.77-2.64-11.77-8S212.59,327.59,220.65,327.59Zm-.1,10.26c5.69,0,8.09-.51,8.09-2.33s-2.23-2.37-8.09-2.37c-5.53,0-7.55.45-7.55,2.37S215.13,337.85,220.55,337.85Z" transform="translate(-8.73 -8.63)"/><path class="cls-5" d="M222.91,319.46h9.47v5.25H209.23v-7.82c0-4.46,2.19-6.76,6.41-6.76,3.19,0,4.7,1.58,5.25,3,.82-1.82,2.3-2.68,5.62-2.68h.83a37.81,37.81,0,0,0,5-.24v5.15a24,24,0,0,1-5.21.37h-.79c-2.75,0-3.47.55-3.47,2.58Zm-4,0v-1.23c0-2-.72-2.78-3-2.78-1.88,0-2.74.69-2.74,2.44v1.57Z" transform="translate(-8.73 -8.63)"/><path class="cls-5" d="M225.66,302.93c1.92-.14,3.22-.65,3.22-2.27s-1-2-2.37-2c-1.57,0-2.53.79-3.94,3.53-2.06,4-3.81,5.53-7.2,5.53-4,0-6.59-2.41-6.59-7,0-5.42,3.4-7,6.93-7v5.11c-1.61.1-3,.41-3,1.92,0,1.17.76,1.72,2.06,1.72s2-.52,3.26-3.05c2.16-4.29,4-6.11,7.89-6.11s6.9,2.23,6.9,7.44c0,5.63-3.23,7.34-7.17,7.45Z" transform="translate(-8.73 -8.63)"/><path class="cls-2" d="M199.07,395.4l4.05.86v3.09l-16.12-4v-4l16.12-4v3.24l-4.05.84Zm-2.5-3.44c-3.09.64-5.36,1.15-6.88,1.43v.07c1.48.21,3.91.77,6.88,1.4Z" transform="translate(-8.73 -8.63)"/><path class="cls-2" d="M187,382.89h11.1c1.31,0,2.88-.36,2.88-2.27s-1.31-2.22-2.86-2.22H187v-3.08h11.17c2.88,0,5.24,1.2,5.24,5.35s-2.22,5.3-5.24,5.3H187Z" transform="translate(-8.73 -8.63)"/><path class="cls-2" d="M189.52,370.08v3.69H187V363.3h2.52V367h13.6v3.09Z" transform="translate(-8.73 -8.63)"/><path class="cls-2" d="M195,351.4c5.89,0,8.46,1.71,8.46,5.68,0,3.72-2.53,5.53-8.51,5.53-5.81,0-8.14-2.11-8.14-5.66C186.76,353.18,189.36,351.4,195,351.4Zm-.07,8.05c3.84,0,6.1-.63,6.1-2.44s-2.1-2.45-6.1-2.45c-3.74,0-5.69.59-5.69,2.45S191.28,359.45,194.88,359.45Z" transform="translate(-8.73 -8.63)"/><path class="cls-2" d="M197.12,338.38c-2.74,0-5.88-.05-7.72-.1v.08c3.08.58,8.51,1.55,13.72,2.67v2.78c-4.86.84-10.64,1.83-13.76,2.39v.11c1.88-.11,5.26-.18,8-.18h5.71v2.8H187v-4.61c4.45-.89,8.95-1.68,11.31-2v0c-2.19-.35-7.05-1.42-11.31-2.31v-4.51h16.12v2.95Z" transform="translate(-8.73 -8.63)"/><path class="cls-2" d="M187,332.47v-5.25c0-3,1.55-4.63,4.09-4.63,2,0,3,1,3.36,2a3.77,3.77,0,0,1,3.93-2.49c3.08,0,4.74,2.14,4.74,5.2v5.19Zm6.43-4.51c0-1.91-.69-2.42-2.07-2.42s-2.05.79-2.05,2.32v1.58h4.12Zm7.45,1.48v-1.83c0-1.53-.73-2.42-2.55-2.42-1.66,0-2.64.73-2.64,2.75v1.5Z" transform="translate(-8.73 -8.63)"/><path class="cls-2" d="M187,316.86h16.12v3.08H187Z" transform="translate(-8.73 -8.63)"/><path class="cls-2" d="M187,313.8v-3.08h13.67V304.8l2.45.31v8.69Z" transform="translate(-8.73 -8.63)"/><path class="cls-2" d="M196,294.67v5.55h4.7V294l2.47.39v8.86H187v-8.84h2.52v5.81h3.93v-5.55Z" transform="translate(-8.73 -8.63)"/><path class="cls-1" d="M130.82,265.56V261c0-2.61,1.44-4,3.8-4,1.89,0,2.82.89,3.13,1.73.42-1.07,1.39-2.17,3.65-2.17,2.86,0,4.41,1.86,4.41,4.51v4.52Zm6-3.92c0-1.66-.64-2.1-1.92-2.1s-1.91.69-1.91,2v1.38h3.83Zm6.93,1.29v-1.6c0-1.33-.68-2.1-2.36-2.1s-2.46.64-2.46,2.39v1.31Z" transform="translate(-8.73 -8.63)"/><path class="cls-1" d="M142,252.14l3.77.76v2.68l-15-3.48v-3.48l15-3.49v2.81l-3.77.73Zm-2.32-3c-2.88.55-5,1-6.4,1.24v.06c1.37.18,3.63.67,6.4,1.22Z" transform="translate(-8.73 -8.63)"/><path class="cls-1" d="M145.81,243.82h-15v-3c8.28-3.1,9.87-3.7,10.6-3.88v0c-1.79.11-4,.13-6.46.13h-4.14v-2.41h15v2.92c-8.84,3.21-10.43,3.77-11.12,4v0c1.86-.11,4.05-.11,6.75-.11h4.37Z" transform="translate(-8.73 -8.63)"/><path class="cls-1" d="M130.82,232v-2.64h6.73c-1.38-.84-4.78-2.76-6.73-4v-3.1l5.86,3.88,9.13-4v3L138.92,228l1.9,1.35h5V232Z" transform="translate(-8.73 -8.63)"/><path class="cls-2" d="M414.37,195.25h6.12c3.51,0,5.41,1.94,5.41,5.11,0,2.53-1.19,3.78-2.32,4.19,1.43.57,2.91,1.87,2.91,4.9,0,3.84-2.49,5.92-6.06,5.92h-6.06Zm5.26,8c2.23,0,2.82-.87,2.82-2.59s-.92-2.55-2.7-2.55h-1.84v5.14Zm-1.72,9.29h2.14c1.78,0,2.82-.92,2.82-3.17,0-2.08-.86-3.3-3.21-3.3h-1.75Z" transform="translate(-8.73 -8.63)"/><path class="cls-2" d="M432.47,195.25V209.1c0,1.63.41,3.59,2.64,3.59s2.59-1.63,2.59-3.56V195.25h3.59v13.94c0,3.59-1.4,6.53-6.24,6.53s-6.18-2.76-6.18-6.53V195.25Z" transform="translate(-8.73 -8.63)"/><path class="cls-2" d="M444.5,195.25h5.23c5.17,0,7.19,3.33,7.19,9.66,0,6.77-1.93,10.46-7.46,10.46h-5Zm3.62,17.18h1.28c2.82,0,3.8-2.11,3.8-7.52,0-4.61-.86-6.65-3.77-6.65h-1.31Z" transform="translate(-8.73 -8.63)"/><path class="cls-2" d="M471.83,215.37H469.1a16.07,16.07,0,0,1-.18-1.73,4.08,4.08,0,0,1-4,2.08c-4.22,0-5.74-3.74-5.74-10.28,0-7.33,2.5-10.48,6.81-10.48,5.43,0,5.73,4.66,5.79,5.85h-3.53c-.06-.8-.24-2.82-2.38-2.82-2.32,0-3,3.09-3,7.45,0,4.67.56,7.25,2.85,7.25,1.9,0,2.5-1.45,2.5-4.42v-1.13h-2.71v-3.06h6.27Z" transform="translate(-8.73 -8.63)"/><path class="cls-2" d="M485,206.42h-6.48v5.86h7.25l-.44,3.09H475V195.25h10.31v3.15h-6.78v4.91H485Z" transform="translate(-8.73 -8.63)"/><path class="cls-2" d="M491.26,198.4H487v-3.15h12.21v3.15h-4.31v17h-3.59Z" transform="translate(-8.73 -8.63)"/><path class="cls-2" d="M38.75,247.4h7.51V249H40.55v5.44H45.9V256H40.55v7.68h-1.8Z" transform="translate(-8.73 -8.63)"/><path class="cls-2" d="M50.08,247.4v16.3H48.27V247.4Z" transform="translate(-8.73 -8.63)"/><path class="cls-2" d="M53.31,263.7V247.4h2.21c4.52,11.28,5.14,12.82,5.36,13.51h0c-.12-2.18-.14-4.63-.14-7.29V247.4h1.68v16.3H60.32c-4.68-11.86-5.25-13.35-5.44-14h0c.12,2,.14,4.7.14,7.63v6.36Z" transform="translate(-8.73 -8.63)"/><path class="cls-2" d="M67.26,258.54l-1.2,5.16H64.28l3.94-16.3h2.33l4,16.3H72.68l-1.2-5.16Zm3.86-1.61c-.93-4-1.56-6.55-1.77-7.85h0c-.24,1.42-.89,4.35-1.71,7.85Z" transform="translate(-8.73 -8.63)"/><path class="cls-2" d="M76.35,263.7V247.4h2.21c4.52,11.28,5.14,12.82,5.36,13.51h0c-.12-2.18-.14-4.63-.14-7.29V247.4h1.68v16.3H83.36c-4.68-11.86-5.25-13.35-5.44-14h0c.12,2,.14,4.7.14,7.63v6.36Z" transform="translate(-8.73 -8.63)"/><path class="cls-2" d="M97.19,259.19c-.07.93-.48,4.75-4.44,4.75-4.35,0-4.68-4.59-4.68-8.5,0-4.75,1.27-8.28,4.87-8.28,3.94,0,4.15,3.67,4.2,4.68h-1.8c0-.55-.14-3.07-2.42-3.07-2.57,0-3,3.5-3,6.67,0,3.43.38,6.92,2.85,6.92,2.19,0,2.5-2.36,2.57-3.17Z" transform="translate(-8.73 -8.63)"/><path class="cls-2" d="M101.27,247.4v16.3h-1.8V247.4Z" transform="translate(-8.73 -8.63)"/><path class="cls-2" d="M106.11,258.54l-1.2,5.16h-1.77l3.93-16.3h2.33l4.06,16.3h-1.92l-1.2-5.16Zm3.87-1.61c-.94-4-1.56-6.55-1.78-7.85h0c-.24,1.42-.88,4.35-1.7,7.85Z" transform="translate(-8.73 -8.63)"/><path class="cls-2" d="M115.21,247.4H117v14.71h5.81l-.24,1.59h-7.37Z" transform="translate(-8.73 -8.63)"/><path class="cls-2" d="M361.67,258.44h3v24.33h9.6l-.39,2.61H361.67Z" transform="translate(-8.73 -8.63)"/><path class="cls-2" d="M391.12,271.65c0,9.21-2.18,14.13-8,14.13-5.55,0-7.86-4.76-7.86-14s2.7-13.69,8-13.69C388.82,258,391.12,262.52,391.12,271.65Zm-12.82,0c0,7.7,1.55,11.55,4.92,11.55s4.84-3.77,4.84-11.51-1.54-11.07-4.88-11.07S378.3,264.31,378.3,271.65Z" transform="translate(-8.73 -8.63)"/><path class="cls-2" d="M398.1,276.85l-2,8.53h-2.94l6.51-26.94h3.85l6.71,26.94h-3.18l-2-8.53Zm6.39-2.66c-1.55-6.63-2.58-10.83-2.94-13h-.08c-.39,2.35-1.46,7.19-2.81,13Z" transform="translate(-8.73 -8.63)"/><path class="cls-2" d="M413.14,285.38V258.44h3.65c7.46,18.65,8.5,21.19,8.85,22.34h0c-.2-3.61-.24-7.66-.24-12.06V258.44h2.78v26.94h-3.49c-7.74-19.6-8.69-22.06-9-23.13h0c.2,3.37.24,7.78.24,12.62v10.51Z" transform="translate(-8.73 -8.63)"/><path class="cls-4" d="M66,319.14h4.52a3.87,3.87,0,0,1,4.18,4.21c0,2.33-1.12,3.35-2.14,3.7,1.33.46,2.71,1.66,2.71,4.34,0,3.12-1.89,5.08-4.88,5.08H66Zm3.85,7.22c2.2,0,3-1,3-2.83a2.51,2.51,0,0,0-2.73-2.81H67.83v5.64Zm-2,8.56h2.35c2,0,3.14-1.25,3.14-3.53s-1.17-3.47-3.52-3.47h-2Z" transform="translate(-8.73 -8.63)"/><path class="cls-4" d="M79.76,331l-1.28,5.48H76.59l4.19-17.33h2.47l4.32,17.33h-2L84.25,331Zm4.11-1.71c-1-4.27-1.66-7-1.89-8.35h0c-.26,1.5-1,4.62-1.82,8.35Z" transform="translate(-8.73 -8.63)"/><path class="cls-4" d="M89.43,336.47V319.14h2.35c4.8,12,5.46,13.63,5.69,14.37h0c-.13-2.32-.16-4.92-.16-7.76v-6.61h1.79v17.33H96.88c-5-12.61-5.59-14.19-5.79-14.88h0c.13,2.17.16,5,.16,8.12v6.76Z" transform="translate(-8.73 -8.63)"/><path class="cls-4" d="M102.55,319.14h1.89v8.55c1.25-1.76,4.06-6,5.85-8.55h2.19l-5,7,5.11,10.31h-2.14l-4.24-8.73-1.79,2.38v6.35h-1.89Z" transform="translate(-8.73 -8.63)"/><path class="cls-4" d="M116,328.48v8h-1.91V319.14h4.54c2.91,0,4.42,1.64,4.42,4.47,0,2.6-1.25,3.7-2.33,4.06,1.61.56,2.12,2,2.12,4.41v.69a17.62,17.62,0,0,0,.26,3.7h-1.92a17.09,17.09,0,0,1-.25-3.75v-.59c0-2.45-.49-3.65-2.84-3.65Zm0-1.6h2.2c2.11,0,2.91-1.2,2.91-3.22,0-1.74-.8-2.91-2.71-2.91H116Z" transform="translate(-8.73 -8.63)"/><path class="cls-4" d="M127.6,319.14v12.15c0,1.92.53,3.81,2.83,3.81s2.86-1.59,2.86-3.81V319.14h1.89v12.18c0,3.16-1.15,5.44-4.8,5.44s-4.72-2.15-4.72-5.31V319.14Z" transform="translate(-8.73 -8.63)"/><path class="cls-4" d="M138.47,319.14h4.47c2.73,0,4.62,1.71,4.62,4.83s-1.71,5-4.88,5h-2.29v7.5h-1.92Zm1.92,8.22h2.09c2.07,0,3.14-1.1,3.14-3.42,0-1.91-1-3.19-2.94-3.19h-2.29Z" transform="translate(-8.73 -8.63)"/><path class="cls-4" d="M152.54,320.83h-3.86v-1.69h9.63v1.69h-3.86v15.64h-1.91Z" transform="translate(-8.73 -8.63)"/><path class="cls-4" d="M168.6,331.68c-.08,1-.52,5.05-4.73,5.05-4.62,0-5-4.88-5-9,0-5.05,1.35-8.8,5.18-8.8,4.18,0,4.41,3.9,4.46,5h-1.91c0-.58-.15-3.26-2.58-3.26-2.73,0-3.16,3.72-3.16,7.09,0,3.65.4,7.35,3,7.35,2.33,0,2.66-2.5,2.74-3.36Z" transform="translate(-8.73 -8.63)"/><path class="cls-4" d="M174,336.47v-6.61a1,1,0,0,0-.1-.43l-4.42-10.29h2.15c1.17,2.94,2.86,7,3.37,8.58.61-1.69,2.3-5.8,3.42-8.58h2L176,329.43a1,1,0,0,0-.1.46v6.58Z" transform="translate(-8.73 -8.63)"/></svg>