<?xml version="1.0" encoding="UTF-8"?>
<svg viewBox="0 0 164.73331 312.06989" xmlns="http://www.w3.org/2000/svg">
 <g transform="translate(-201.05 -213.47)">
  <path d="m272.82 214.73v39.897c-38.467 2.856-72.248 22.342-70.264 65.996 2.0366 44.804 56.01 52.954 56.01 52.954s5.86 0.0554 14.254 0.9923v75.966c-3.1154-0.25714-6.2477-0.62453-9.356-1.0868-36.511-0.5997-59.884-20.886-59.884-20.886-2.0366 0-1.0238 13.235-1.0238 28.509 14.485 12.674 53.726 17.093 70.264 18.098v48.087l16.286 1.0238v-49.205c30.974-2.3766 73.546-17.302 75.352-59.743 2.0144-47.338-47.799-62.055-75.352-66.846v-70.737c32.17 0.9344 59.065 17.42 59.065 17.42l1.0238-31.565s-26.424-8.7934-60.089-9.3717v-39.503h-16.286zm0 63.932v67.287c-14.9-2.9261-38.398-10.881-39.708-32.447-0.84437-13.899 10.201-30.656 39.708-34.841zm16.286 98.537c21.079 4.5636 44.958 14.873 42.779 38.133-2.6443 24.649-20.937 33.941-42.779 35.408v-73.54z" fill="none" stroke="#000" stroke-width="2.5201"/>
 </g>
</svg>
