<?xml version='1.0' encoding='utf-8'?>
<svg xmlns="http://www.w3.org/2000/svg" version="1.1" width="356.017" height="461.004"> <g id="dp_dp001" transform="matrix(1,0,0,1,-268.027,-181.264)"> <path id="dp_path002" fill="#4d5c4c" fill-rule="evenodd" stroke="none" stroke-width="0" d="M 601.005,559.276 C 607.184,561.507 611.424,566.317 611.745,576.357 C 621.133,579.693 623.436,585.056 623.703,590.997 L 602.472,602.711 L 597.589,565.376 Z "/> <path id="dp_path003" fill="#1e5b1a" fill-rule="evenodd" stroke="none" stroke-width="0" d="M 268.472,603.807 C 267.717,594.529 265.812,582.203 284.292,578.265 C 279.543,563.108 288.071,556.879 300.827,549.575 L 310.788,574.151 L 294.771,606.773 Z "/> <path id="dp_path004" fill="#7f967f" fill-rule="evenodd" stroke="none" stroke-width="0" d="M 298.996,578.265 L 268.431,641.828 L 624.021,641.828 L 602.403,578.265 Z "/> <path id="dp_path005" fill="#c8bba7" fill-rule="evenodd" stroke="none" stroke-width="0" d="M 413.869,579.012 L 390.687,641.824 L 510.355,641.824 L 491.648,579.012 Z "/> <path id="dp_path006" fill="#c1b095" fill-rule="evenodd" stroke="none" stroke-width="0" d="M 298.573,275.427 L 602.757,275.427 L 602.757,579.468 L 298.573,579.468 Z "/> <path id="dp_path007" fill="#b62b19" fill-rule="evenodd" stroke="none" stroke-width="0" d="M 297.681,275.935 L 347.915,202.357 L 550.813,202.357 L 602.309,275.015 Z "/> <path id="dp_path008" fill="#c1b095" fill-rule="evenodd" stroke="none" stroke-width="0" d="M 316.352,276.491 L 381.351,238.755 L 446.717,276.705 Z "/> <path id="dp_path009" fill="#c1b095" fill-rule="evenodd" stroke="none" stroke-width="0" d="M 460.741,276.507 L 525.74,241.42 L 591.107,276.705 Z "/> <path id="dp_path010" fill="white" fill-rule="evenodd" stroke="none" stroke-width="0" d="M 327.865,287.099 L 398.499,287.099 L 398.499,357.452 L 327.865,357.452 Z "/> <path id="dp_path011" fill="#4e607e" fill-rule="evenodd" stroke="none" stroke-width="0" d="M 330.976,290.307 L 350.104,290.307 L 350.104,309.427 L 330.976,309.427 Z "/> <path id="dp_path012" fill="#4e607e" fill-rule="evenodd" stroke="none" stroke-width="0" d="M 353.581,290.307 L 372.711,290.307 L 372.711,309.427 L 353.581,309.427 Z "/> <path id="dp_path013" fill="#4e607e" fill-rule="evenodd" stroke="none" stroke-width="0" d="M 376.187,290.307 L 395.315,290.307 L 395.315,309.427 L 376.187,309.427 Z "/> <path id="dp_path014" fill="#4e607e" fill-rule="evenodd" stroke="none" stroke-width="0" d="M 330.976,312.901 L 350.104,312.901 L 350.104,332.023 L 330.976,332.023 Z "/> <path id="dp_path015" fill="#4e607e" fill-rule="evenodd" stroke="none" stroke-width="0" d="M 353.581,312.901 L 372.711,312.901 L 372.711,332.023 L 353.581,332.023 Z "/> <path id="dp_path016" fill="#4e607e" fill-rule="evenodd" stroke="none" stroke-width="0" d="M 376.187,312.901 L 395.315,312.901 L 395.315,332.023 L 376.187,332.023 Z "/> <path id="dp_path017" fill="#4e607e" fill-rule="evenodd" stroke="none" stroke-width="0" d="M 330.976,335.249 L 350.104,335.249 L 350.104,354.371 L 330.976,354.371 Z "/> <path id="dp_path018" fill="#4e607e" fill-rule="evenodd" stroke="none" stroke-width="0" d="M 353.581,335.249 L 372.711,335.249 L 372.711,354.371 L 353.581,354.371 Z "/> <path id="dp_path019" fill="#4e607e" fill-rule="evenodd" stroke="none" stroke-width="0" d="M 376.187,335.249 L 395.315,335.249 L 395.315,354.371 L 376.187,354.371 Z "/> <path id="dp_path020" fill="white" fill-rule="evenodd" stroke="none" stroke-width="0" d="M 508.084,287.099 L 578.719,287.099 L 578.719,357.452 L 508.084,357.452 Z "/> <path id="dp_path021" fill="#4e607e" fill-rule="evenodd" stroke="none" stroke-width="0" d="M 511.195,290.307 L 530.323,290.307 L 530.323,309.427 L 511.195,309.427 Z "/> <path id="dp_path022" fill="#4e607e" fill-rule="evenodd" stroke="none" stroke-width="0" d="M 533.8,290.307 L 552.929,290.307 L 552.929,309.427 L 533.8,309.427 Z "/> <path id="dp_path023" fill="#4e607e" fill-rule="evenodd" stroke="none" stroke-width="0" d="M 556.405,290.307 L 575.535,290.307 L 575.535,309.427 L 556.405,309.427 Z "/> <path id="dp_path024" fill="#4e607e" fill-rule="evenodd" stroke="none" stroke-width="0" d="M 511.195,312.901 L 530.323,312.901 L 530.323,332.023 L 511.195,332.023 Z "/> <path id="dp_path025" fill="#4e607e" fill-rule="evenodd" stroke="none" stroke-width="0" d="M 533.8,312.901 L 552.929,312.901 L 552.929,332.023 L 533.8,332.023 Z "/> <path id="dp_path026" fill="#4e607e" fill-rule="evenodd" stroke="none" stroke-width="0" d="M 556.405,312.901 L 575.535,312.901 L 575.535,332.023 L 556.405,332.023 Z "/> <path id="dp_path027" fill="#4e607e" fill-rule="evenodd" stroke="none" stroke-width="0" d="M 511.195,335.249 L 530.323,335.249 L 530.323,354.371 L 511.195,354.371 Z "/> <path id="dp_path028" fill="#4e607e" fill-rule="evenodd" stroke="none" stroke-width="0" d="M 533.8,335.249 L 552.929,335.249 L 552.929,354.371 L 533.8,354.371 Z "/> <path id="dp_path029" fill="#4e607e" fill-rule="evenodd" stroke="none" stroke-width="0" d="M 556.405,335.249 L 575.535,335.249 L 575.535,354.371 L 556.405,354.371 Z "/> <path id="dp_path030" fill="white" fill-rule="evenodd" stroke="none" stroke-width="0" d="M 327.865,369.571 L 398.499,369.571 L 398.499,439.925 L 327.865,439.925 Z "/> <path id="dp_path031" fill="#4e607e" fill-rule="evenodd" stroke="none" stroke-width="0" d="M 330.976,372.779 L 350.104,372.779 L 350.104,391.9 L 330.976,391.9 Z "/> <path id="dp_path032" fill="#4e607e" fill-rule="evenodd" stroke="none" stroke-width="0" d="M 353.581,372.779 L 372.711,372.779 L 372.711,391.9 L 353.581,391.9 Z "/> <path id="dp_path033" fill="#4e607e" fill-rule="evenodd" stroke="none" stroke-width="0" d="M 376.187,372.779 L 395.315,372.779 L 395.315,391.9 L 376.187,391.9 Z "/> <path id="dp_path034" fill="#4e607e" fill-rule="evenodd" stroke="none" stroke-width="0" d="M 330.976,395.373 L 350.104,395.373 L 350.104,414.495 L 330.976,414.495 Z "/> <path id="dp_path035" fill="#4e607e" fill-rule="evenodd" stroke="none" stroke-width="0" d="M 353.581,395.373 L 372.711,395.373 L 372.711,414.495 L 353.581,414.495 Z "/> <path id="dp_path036" fill="#4e607e" fill-rule="evenodd" stroke="none" stroke-width="0" d="M 376.187,395.373 L 395.315,395.373 L 395.315,414.495 L 376.187,414.495 Z "/> <path id="dp_path037" fill="#4e607e" fill-rule="evenodd" stroke="none" stroke-width="0" d="M 330.976,417.721 L 350.104,417.721 L 350.104,436.84 L 330.976,436.84 Z "/> <path id="dp_path038" fill="#4e607e" fill-rule="evenodd" stroke="none" stroke-width="0" d="M 353.581,417.721 L 372.711,417.721 L 372.711,436.84 L 353.581,436.84 Z "/> <path id="dp_path039" fill="#4e607e" fill-rule="evenodd" stroke="none" stroke-width="0" d="M 376.187,417.721 L 395.315,417.721 L 395.315,436.84 L 376.187,436.84 Z "/> <path id="dp_path040" fill="white" fill-rule="evenodd" stroke="none" stroke-width="0" d="M 508.084,369.571 L 578.719,369.571 L 578.719,439.925 L 508.084,439.925 Z "/> <path id="dp_path041" fill="#4e607e" fill-rule="evenodd" stroke="none" stroke-width="0" d="M 511.195,372.779 L 530.323,372.779 L 530.323,391.9 L 511.195,391.9 Z "/> <path id="dp_path042" fill="#4e607e" fill-rule="evenodd" stroke="none" stroke-width="0" d="M 533.8,372.779 L 552.929,372.779 L 552.929,391.9 L 533.8,391.9 Z "/> <path id="dp_path043" fill="#4e607e" fill-rule="evenodd" stroke="none" stroke-width="0" d="M 556.405,372.779 L 575.535,372.779 L 575.535,391.9 L 556.405,391.9 Z "/> <path id="dp_path044" fill="#4e607e" fill-rule="evenodd" stroke="none" stroke-width="0" d="M 511.195,395.373 L 530.323,395.373 L 530.323,414.495 L 511.195,414.495 Z "/> <path id="dp_path045" fill="#4e607e" fill-rule="evenodd" stroke="none" stroke-width="0" d="M 533.8,395.373 L 552.929,395.373 L 552.929,414.495 L 533.8,414.495 Z "/> <path id="dp_path046" fill="#4e607e" fill-rule="evenodd" stroke="none" stroke-width="0" d="M 556.405,395.373 L 575.535,395.373 L 575.535,414.495 L 556.405,414.495 Z "/> <path id="dp_path047" fill="#4e607e" fill-rule="evenodd" stroke="none" stroke-width="0" d="M 511.195,417.721 L 530.323,417.721 L 530.323,436.84 L 511.195,436.84 Z "/> <path id="dp_path048" fill="#4e607e" fill-rule="evenodd" stroke="none" stroke-width="0" d="M 533.8,417.721 L 552.929,417.721 L 552.929,436.84 L 533.8,436.84 Z "/> <path id="dp_path049" fill="#4e607e" fill-rule="evenodd" stroke="none" stroke-width="0" d="M 556.405,417.721 L 575.535,417.721 L 575.535,436.84 L 556.405,436.84 Z "/> <path id="dp_path050" fill="white" fill-rule="evenodd" stroke="none" stroke-width="0" d="M 326.663,460.469 L 397.296,460.469 L 397.296,554.3 L 326.663,554.3 Z "/> <path id="dp_path051" fill="#4e607e" fill-rule="evenodd" stroke="none" stroke-width="0" d="M 329.772,487.157 L 348.901,487.157 L 348.901,506.277 L 329.772,506.277 Z "/> <path id="dp_path052" fill="#4e607e" fill-rule="evenodd" stroke="none" stroke-width="0" d="M 352.377,487.157 L 371.507,487.157 L 371.507,506.277 L 352.377,506.277 Z "/> <path id="dp_path053" fill="#4e607e" fill-rule="evenodd" stroke="none" stroke-width="0" d="M 374.983,487.157 L 394.112,487.157 L 394.112,506.277 L 374.983,506.277 Z "/> <path id="dp_path054" fill="#4e607e" fill-rule="evenodd" stroke="none" stroke-width="0" d="M 329.772,509.751 L 348.901,509.751 L 348.901,528.872 L 329.772,528.872 Z "/> <path id="dp_path055" fill="#4e607e" fill-rule="evenodd" stroke="none" stroke-width="0" d="M 352.377,509.751 L 371.507,509.751 L 371.507,528.872 L 352.377,528.872 Z "/> <path id="dp_path056" fill="#4e607e" fill-rule="evenodd" stroke="none" stroke-width="0" d="M 374.983,509.751 L 394.112,509.751 L 394.112,528.872 L 374.983,528.872 Z "/> <path id="dp_path057" fill="#4e607e" fill-rule="evenodd" stroke="none" stroke-width="0" d="M 329.772,532.099 L 348.901,532.099 L 348.901,551.219 L 329.772,551.219 Z "/> <path id="dp_path058" fill="#4e607e" fill-rule="evenodd" stroke="none" stroke-width="0" d="M 352.377,532.099 L 371.507,532.099 L 371.507,551.219 L 352.377,551.219 Z "/> <path id="dp_path059" fill="#4e607e" fill-rule="evenodd" stroke="none" stroke-width="0" d="M 374.983,532.099 L 394.112,532.099 L 394.112,551.219 L 374.983,551.219 Z "/> <path id="dp_path060" fill="#4e607e" fill-rule="evenodd" stroke="none" stroke-width="0" d="M 329.772,464.883 L 348.901,464.883 L 348.901,484.004 L 329.772,484.004 Z "/> <path id="dp_path061" fill="#4e607e" fill-rule="evenodd" stroke="none" stroke-width="0" d="M 352.377,464.883 L 371.507,464.883 L 371.507,484.004 L 352.377,484.004 Z "/> <path id="dp_path062" fill="#4e607e" fill-rule="evenodd" stroke="none" stroke-width="0" d="M 374.983,464.883 L 394.112,464.883 L 394.112,484.004 L 374.983,484.004 Z "/> <path id="dp_path063" fill="white" fill-rule="evenodd" stroke="none" stroke-width="0" d="M 509.149,460.469 L 579.781,460.469 L 579.781,554.3 L 509.149,554.3 Z "/> <path id="dp_path064" fill="#4e607e" fill-rule="evenodd" stroke="none" stroke-width="0" d="M 512.259,487.157 L 531.388,487.157 L 531.388,506.277 L 512.259,506.277 Z "/> <path id="dp_path065" fill="#4e607e" fill-rule="evenodd" stroke="none" stroke-width="0" d="M 534.864,487.157 L 553.993,487.157 L 553.993,506.277 L 534.864,506.277 Z "/> <path id="dp_path066" fill="#4e607e" fill-rule="evenodd" stroke="none" stroke-width="0" d="M 557.469,487.157 L 576.599,487.157 L 576.599,506.277 L 557.469,506.277 Z "/> <path id="dp_path067" fill="#4e607e" fill-rule="evenodd" stroke="none" stroke-width="0" d="M 512.259,509.751 L 531.388,509.751 L 531.388,528.872 L 512.259,528.872 Z "/> <path id="dp_path068" fill="#4e607e" fill-rule="evenodd" stroke="none" stroke-width="0" d="M 534.864,509.751 L 553.993,509.751 L 553.993,528.872 L 534.864,528.872 Z "/> <path id="dp_path069" fill="#4e607e" fill-rule="evenodd" stroke="none" stroke-width="0" d="M 557.469,509.751 L 576.599,509.751 L 576.599,528.872 L 557.469,528.872 Z "/> <path id="dp_path070" fill="#4e607e" fill-rule="evenodd" stroke="none" stroke-width="0" d="M 512.259,532.099 L 531.388,532.099 L 531.388,551.219 L 512.259,551.219 Z "/> <path id="dp_path071" fill="#4e607e" fill-rule="evenodd" stroke="none" stroke-width="0" d="M 534.864,532.099 L 553.993,532.099 L 553.993,551.219 L 534.864,551.219 Z "/> <path id="dp_path072" fill="#4e607e" fill-rule="evenodd" stroke="none" stroke-width="0" d="M 557.469,532.099 L 576.599,532.099 L 576.599,551.219 L 557.469,551.219 Z "/> <path id="dp_path073" fill="#4e607e" fill-rule="evenodd" stroke="none" stroke-width="0" d="M 512.259,464.883 L 531.388,464.883 L 531.388,484.004 L 512.259,484.004 Z "/> <path id="dp_path074" fill="#4e607e" fill-rule="evenodd" stroke="none" stroke-width="0" d="M 534.864,464.883 L 553.993,464.883 L 553.993,484.004 L 534.864,484.004 Z "/> <path id="dp_path075" fill="#4e607e" fill-rule="evenodd" stroke="none" stroke-width="0" d="M 557.469,464.883 L 576.599,464.883 L 576.599,484.004 L 557.469,484.004 Z "/> <path id="dp_path076" fill="#981100" fill-rule="evenodd" stroke="none" stroke-width="0" d="M 399.655,475.029 L 417.333,443.672 L 488.74,443.672 L 506.863,474.637 Z "/> <path id="dp_path077" fill="white" fill-rule="evenodd" stroke="none" stroke-width="0" d="M 416.185,437.661 L 488.865,437.661 C 487.251,413.908 478.996,396.792 453.817,396.591 C 423.715,396.491 417.545,415.188 416.185,437.661 Z "/> <path id="dp_path078" fill="#4e607e" fill-rule="evenodd" stroke="none" stroke-width="0" d="M 419.017,435.028 L 450.715,435.028 L 421.567,421.189 C 420.816,423.324 420.252,425.457 419.843,427.589 C 419.367,430.071 419.107,432.549 419.017,435.028 Z "/> <path id="dp_path079" fill="#4e607e" fill-rule="evenodd" stroke="none" stroke-width="0" d="M 422.841,417.731 L 451.807,433.753 L 432.68,405.531 C 427.884,408.081 424.725,412.268 422.841,417.731 Z "/> <path id="dp_path080" fill="#4e607e" fill-rule="evenodd" stroke="none" stroke-width="0" d="M 485.872,434.849 L 454.176,434.849 L 483.321,421.009 C 484.072,423.143 484.639,425.277 485.048,427.409 C 485.523,429.889 485.784,432.369 485.872,434.849 Z "/> <path id="dp_path081" fill="#4e607e" fill-rule="evenodd" stroke="none" stroke-width="0" d="M 482.047,417.549 L 453.083,433.573 L 472.209,405.351 C 477.005,407.901 480.165,412.088 482.047,417.549 Z "/> <path id="dp_path082" fill="#4e607e" fill-rule="evenodd" stroke="none" stroke-width="0" d="M 451.967,431.581 L 434.917,404.2 C 439.236,401.015 444.392,399.788 450.243,400.179 Z "/> <path id="dp_path083" fill="#4e607e" fill-rule="evenodd" stroke="none" stroke-width="0" d="M 452.735,431.773 L 469.784,404.392 C 465.463,401.208 460.307,399.98 454.457,400.371 Z "/> <path id="dp_path084" fill="white" fill-rule="evenodd" stroke="none" stroke-width="0" d="M 418.903,287.099 L 489.535,287.099 L 489.535,380.929 L 418.903,380.929 Z "/> <path id="dp_path085" fill="#4e607e" fill-rule="evenodd" stroke="none" stroke-width="0" d="M 422.012,313.787 L 441.14,313.787 L 441.14,332.907 L 422.012,332.907 Z "/> <path id="dp_path086" fill="#4e607e" fill-rule="evenodd" stroke="none" stroke-width="0" d="M 444.617,313.787 L 463.747,313.787 L 463.747,332.907 L 444.617,332.907 Z "/> <path id="dp_path087" fill="#4e607e" fill-rule="evenodd" stroke="none" stroke-width="0" d="M 467.223,313.787 L 486.352,313.787 L 486.352,332.907 L 467.223,332.907 Z "/> <path id="dp_path088" fill="#4e607e" fill-rule="evenodd" stroke="none" stroke-width="0" d="M 422.012,336.379 L 441.14,336.379 L 441.14,355.5 L 422.012,355.5 Z "/> <path id="dp_path089" fill="#4e607e" fill-rule="evenodd" stroke="none" stroke-width="0" d="M 444.617,336.379 L 463.747,336.379 L 463.747,355.5 L 444.617,355.5 Z "/> <path id="dp_path090" fill="#4e607e" fill-rule="evenodd" stroke="none" stroke-width="0" d="M 467.223,336.379 L 486.352,336.379 L 486.352,355.5 L 467.223,355.5 Z "/> <path id="dp_path091" fill="#4e607e" fill-rule="evenodd" stroke="none" stroke-width="0" d="M 422.012,358.727 L 441.14,358.727 L 441.14,377.848 L 422.012,377.848 Z "/> <path id="dp_path092" fill="#4e607e" fill-rule="evenodd" stroke="none" stroke-width="0" d="M 444.617,358.727 L 463.747,358.727 L 463.747,377.848 L 444.617,377.848 Z "/> <path id="dp_path093" fill="#4e607e" fill-rule="evenodd" stroke="none" stroke-width="0" d="M 467.223,358.727 L 486.352,358.727 L 486.352,377.848 L 467.223,377.848 Z "/> <path id="dp_path094" fill="#4e607e" fill-rule="evenodd" stroke="none" stroke-width="0" d="M 422.012,291.512 L 441.14,291.512 L 441.14,310.633 L 422.012,310.633 Z "/> <path id="dp_path095" fill="#4e607e" fill-rule="evenodd" stroke="none" stroke-width="0" d="M 444.617,291.512 L 463.747,291.512 L 463.747,310.633 L 444.617,310.633 Z "/> <path id="dp_path096" fill="#4e607e" fill-rule="evenodd" stroke="none" stroke-width="0" d="M 467.223,291.512 L 486.352,291.512 L 486.352,310.633 L 467.223,310.633 Z "/> <path id="dp_path097" fill="white" fill-rule="evenodd" stroke="none" stroke-width="0" d="M 399.819,475.016 L 399.819,579.556 L 414.081,579.556 L 414.081,475.003 Z "/> <path id="dp_path098" fill="#c6c8cb" fill-rule="evenodd" fill-opacity="0.584314" stroke="none" stroke-width="0" d="M 402.252,479.447 L 402.252,575.737 L 402.859,575.737 L 402.859,479.445 Z "/> <path id="dp_path099" fill="#c6c8cb" fill-rule="evenodd" fill-opacity="0.584314" stroke="none" stroke-width="0" d="M 404.919,479.447 L 404.919,575.737 L 405.525,575.737 L 405.525,479.445 Z "/> <path id="dp_path100" fill="#c6c8cb" fill-rule="evenodd" fill-opacity="0.584314" stroke="none" stroke-width="0" d="M 408.471,479.447 L 408.471,575.737 L 409.08,575.737 L 409.08,479.445 Z "/> <path id="dp_path101" fill="#c6c8cb" fill-rule="evenodd" fill-opacity="0.584314" stroke="none" stroke-width="0" d="M 411.137,479.447 L 411.137,575.737 L 411.747,575.737 L 411.747,479.445 Z "/> <path id="dp_path102" fill="white" fill-rule="evenodd" stroke="none" stroke-width="0" d="M 492.419,474.84 L 492.419,579.379 L 506.683,579.379 L 506.683,474.825 Z "/> <path id="dp_path103" fill="#c6c8cb" fill-rule="evenodd" fill-opacity="0.576471" stroke="none" stroke-width="0" d="M 494.853,479.269 L 494.853,575.56 L 495.461,575.56 L 495.461,479.269 Z "/> <path id="dp_path104" fill="#c6c8cb" fill-rule="evenodd" fill-opacity="0.576471" stroke="none" stroke-width="0" d="M 497.52,479.269 L 497.52,575.56 L 498.128,575.56 L 498.128,479.269 Z "/> <path id="dp_path105" fill="#c6c8cb" fill-rule="evenodd" fill-opacity="0.576471" stroke="none" stroke-width="0" d="M 501.073,479.269 L 501.073,575.56 L 501.683,575.56 L 501.683,479.269 Z "/> <path id="dp_path106" fill="#c6c8cb" fill-rule="evenodd" fill-opacity="0.576471" stroke="none" stroke-width="0" d="M 503.74,479.269 L 503.74,575.56 L 504.349,575.56 L 504.349,479.269 Z "/> <path id="dp_path107" fill="#8c7366" fill-rule="evenodd" stroke="none" stroke-width="0" d="M 380.057,538.367 L 383.504,538.367 L 383.504,565.379 L 380.057,565.379 Z "/> <path id="dp_path108" fill="#5c7060" fill-rule="evenodd" stroke="none" stroke-width="0" d="M 382.224,512.424 C 390.155,512.424 396.583,518.852 396.583,526.78 C 396.583,534.709 390.155,541.136 382.224,541.136 C 374.296,541.136 367.867,534.709 367.867,526.78 C 367.867,518.852 374.296,512.424 382.224,512.424 Z "/> <path id="dp_path109" fill="#a34b4a" fill-rule="evenodd" stroke="none" stroke-width="0" d="M 373.732,564.229 L 389.832,564.229 L 385.697,579.656 L 377.168,579.656 Z "/> <path id="dp_path110" fill="#8c7366" fill-rule="evenodd" stroke="none" stroke-width="0" d="M 522.328,538.367 L 525.775,538.367 L 525.775,565.379 L 522.328,565.379 Z "/> <path id="dp_path111" fill="#5c7060" fill-rule="evenodd" stroke="none" stroke-width="0" d="M 524.495,512.424 C 532.424,512.424 538.853,518.852 538.853,526.78 C 538.853,534.709 532.424,541.136 524.495,541.136 C 516.565,541.136 510.137,534.709 510.137,526.78 C 510.137,518.852 516.565,512.424 524.495,512.424 Z "/> <path id="dp_path112" fill="#a34b4a" fill-rule="evenodd" stroke="none" stroke-width="0" d="M 516.004,564.229 L 532.104,564.229 L 527.968,579.656 L 519.439,579.656 Z "/> <path id="dp_path113" fill="#dacdb6" fill-rule="evenodd" stroke="none" stroke-width="0" d="M 413.911,573.748 L 492.433,573.748 L 492.433,579.805 L 413.911,579.805 Z "/> <path id="dp_path114" fill="#e3d6be" fill-rule="evenodd" stroke="none" stroke-width="0" d="M 413.911,567.925 L 492.433,567.925 L 492.433,573.981 L 413.911,573.981 Z "/> <path id="dp_path115" fill="#f8bb4f" fill-rule="evenodd" stroke="none" stroke-width="0" d="M 418.363,483.005 L 487.868,483.005 L 487.868,568.168 L 418.363,568.168 Z "/> <path id="dp_path116" fill="#ef9d4b" fill-rule="evenodd" fill-opacity="0.498039" stroke="none" stroke-width="0" d="M 420.824,487.607 L 434.889,487.607 L 434.889,530.16 L 420.824,530.16 Z "/> <path id="dp_path117" fill="#f8bb4f" fill-rule="evenodd" stroke="none" stroke-width="0" d="M 421.949,489.163 L 433.76,489.163 L 433.76,528.692 L 421.949,528.692 Z "/> <path id="dp_path118" fill="#ef9d4b" fill-rule="evenodd" fill-opacity="0.498039" stroke="none" stroke-width="0" d="M 437.716,487.607 L 451.78,487.607 L 451.78,530.16 L 437.716,530.16 Z "/> <path id="dp_path119" fill="#f8bb4f" fill-rule="evenodd" stroke="none" stroke-width="0" d="M 438.844,489.163 L 450.655,489.163 L 450.655,528.692 L 438.844,528.692 Z "/> <path id="dp_path120" fill="#ef9d4b" fill-rule="evenodd" fill-opacity="0.498039" stroke="none" stroke-width="0" d="M 454.609,487.607 L 468.675,487.607 L 468.675,530.16 L 454.609,530.16 Z "/> <path id="dp_path121" fill="#f8bb4f" fill-rule="evenodd" stroke="none" stroke-width="0" d="M 455.737,489.163 L 467.547,489.163 L 467.547,528.692 L 455.737,528.692 Z "/> <path id="dp_path122" fill="#ef9d4b" fill-rule="evenodd" fill-opacity="0.498039" stroke="none" stroke-width="0" d="M 471.504,487.607 L 485.568,487.607 L 485.568,530.16 L 471.504,530.16 Z "/> <path id="dp_path123" fill="#f8bb4f" fill-rule="evenodd" stroke="none" stroke-width="0" d="M 472.629,489.163 L 484.44,489.163 L 484.44,528.692 L 472.629,528.692 Z "/> <path id="dp_path124" fill="#ef9d4b" fill-rule="evenodd" fill-opacity="0.498039" stroke="none" stroke-width="0" d="M 420.824,537.051 L 434.889,537.051 L 434.889,565.173 L 420.824,565.173 Z "/> <path id="dp_path125" fill="#f8bb4f" fill-rule="evenodd" stroke="none" stroke-width="0" d="M 421.949,538.079 L 433.76,538.079 L 433.76,564.204 L 421.949,564.204 Z "/> <path id="dp_path126" fill="#ef9d4b" fill-rule="evenodd" fill-opacity="0.498039" stroke="none" stroke-width="0" d="M 437.716,537.051 L 451.78,537.051 L 451.78,565.173 L 437.716,565.173 Z "/> <path id="dp_path127" fill="#f8bb4f" fill-rule="evenodd" stroke="none" stroke-width="0" d="M 438.844,538.079 L 450.655,538.079 L 450.655,564.204 L 438.844,564.204 Z "/> <path id="dp_path128" fill="#ef9d4b" fill-rule="evenodd" fill-opacity="0.498039" stroke="none" stroke-width="0" d="M 454.609,537.051 L 468.675,537.051 L 468.675,565.173 L 454.609,565.173 Z "/> <path id="dp_path129" fill="#f8bb4f" fill-rule="evenodd" stroke="none" stroke-width="0" d="M 455.737,538.079 L 467.547,538.079 L 467.547,564.204 L 455.737,564.204 Z "/> <path id="dp_path130" fill="#ef9d4b" fill-rule="evenodd" fill-opacity="0.498039" stroke="none" stroke-width="0" d="M 471.504,537.051 L 485.568,537.051 L 485.568,565.173 L 471.504,565.173 Z "/> <path id="dp_path131" fill="#f8bb4f" fill-rule="evenodd" stroke="none" stroke-width="0" d="M 472.629,538.079 L 484.44,538.079 L 484.44,564.204 L 472.629,564.204 Z "/> <path id="dp_path132" fill="white" fill-rule="evenodd" stroke="none" stroke-width="0" d="M 448.576,531.235 C 449.911,531.235 450.991,532.316 450.991,533.649 C 450.991,534.984 449.911,536.065 448.576,536.065 C 447.243,536.065 446.16,534.984 446.16,533.649 C 446.16,532.316 447.243,531.235 448.576,531.235 Z "/> <path id="dp_path133" fill="white" fill-rule="evenodd" stroke="none" stroke-width="0" d="M 458.196,531.235 C 459.529,531.235 460.611,532.316 460.611,533.649 C 460.611,534.984 459.529,536.065 458.196,536.065 C 456.861,536.065 455.78,534.984 455.78,533.649 C 455.78,532.316 456.861,531.235 458.196,531.235 Z "/> <path id="dp_path134" fill="none" fill-rule="evenodd" stroke="black" stroke-width="2.66667" d="M 399.268,640.707 L 399.268,572.848 C 399.276,553.331 415.412,542.548 451.607,542.632 L 451.607,640.144 Z "/> <path id="dp_path135" fill="none" fill-rule="evenodd" stroke="black" stroke-width="1.33333" d="M 414.793,541.933 L 414.793,640.352"/> <path id="dp_path136" fill="none" fill-rule="evenodd" stroke="black" stroke-width="1.33333" d="M 429.493,536.908 L 429.493,640.112"/> <path id="dp_path137" fill="none" fill-rule="evenodd" stroke="black" stroke-width="1.33333" d="M 443.581,534.512 L 443.581,639.315"/> <path id="dp_path138" fill="black" fill-rule="evenodd" stroke="none" stroke-width="0" d="M 399.496,630.621 L 450.979,630.621 L 450.979,639.788 L 398.715,639.788 Z "/> <path id="dp_path139" fill="none" fill-rule="evenodd" stroke="black" stroke-width="1.33333" d="M 436.836,534.512 L 436.836,639.315"/> <path id="dp_path140" fill="none" fill-rule="evenodd" stroke="black" stroke-width="1.33333" d="M 422.187,536.908 L 422.187,640.112"/> <path id="dp_path141" fill="none" fill-rule="evenodd" stroke="black" stroke-width="1.33333" d="M 407.207,541.933 L 407.207,640.352"/> <path id="dp_path142" fill="black" fill-rule="evenodd" stroke="none" stroke-width="0" d="M 407.173,544.769 C 405.725,544.468 405.072,543.575 404.879,542.332 C 404.923,539.22 406.043,536.308 407.46,533.447 C 408.596,536.564 409.456,539.589 409.465,542.332 C 409.127,543.571 408.451,544.472 407.173,544.769 Z "/> <path id="dp_path143" fill="black" fill-rule="evenodd" stroke="none" stroke-width="0" d="M 414.711,544.312 C 413.264,544.009 412.608,543.117 412.416,541.875 C 412.46,538.764 413.581,535.851 414.996,532.989 C 416.133,536.107 416.993,539.132 417.004,541.875 C 416.664,543.113 415.988,544.013 414.711,544.312 Z "/> <path id="dp_path144" fill="black" fill-rule="evenodd" stroke="none" stroke-width="0" d="M 422.019,541.001 C 420.573,540.699 419.917,539.805 419.725,538.563 C 419.771,535.452 420.889,532.54 422.307,529.677 C 423.441,532.796 424.301,535.821 424.312,538.563 C 423.973,539.801 423.297,540.703 422.019,541.001 Z "/> <path id="dp_path145" fill="black" fill-rule="evenodd" stroke="none" stroke-width="0" d="M 429.328,540.887 C 427.883,540.584 427.227,539.691 427.033,538.449 C 427.077,535.337 428.199,532.424 429.615,529.563 C 430.751,532.683 431.611,535.707 431.621,538.449 C 431.283,539.687 430.607,540.588 429.328,540.887 Z "/> <path id="dp_path146" fill="black" fill-rule="evenodd" stroke="none" stroke-width="0" d="M 436.637,538.373 C 435.191,538.073 434.536,537.177 434.345,535.936 C 434.388,532.825 435.508,529.912 436.925,527.052 C 438.06,530.169 438.921,533.193 438.931,535.936 C 438.592,537.175 437.916,538.076 436.637,538.373 Z "/> <path id="dp_path147" fill="black" fill-rule="evenodd" stroke="none" stroke-width="0" d="M 443.717,538.488 C 442.273,538.187 441.617,537.292 441.424,536.052 C 441.468,532.939 442.589,530.027 444.004,527.167 C 445.141,530.284 446.001,533.311 446.011,536.052 C 445.671,537.288 444.996,538.191 443.717,538.488 Z "/> <path id="dp_path148" fill="black" fill-rule="evenodd" stroke="none" stroke-width="0" d="M 407.244,606.829 L 405.392,613.735 L 407.261,616.969 L 409.028,613.909 Z "/> <path id="dp_path149" fill="black" fill-rule="evenodd" stroke="none" stroke-width="0" d="M 414.801,606.829 L 412.951,613.735 L 414.819,616.969 L 416.584,613.909 Z "/> <path id="dp_path150" fill="black" fill-rule="evenodd" stroke="none" stroke-width="0" d="M 422.217,606.829 L 420.367,613.735 L 422.233,616.969 L 424.001,613.909 Z "/> <path id="dp_path151" fill="black" fill-rule="evenodd" stroke="none" stroke-width="0" d="M 429.492,606.829 L 427.64,613.735 L 429.508,616.969 L 431.276,613.909 Z "/> <path id="dp_path152" fill="black" fill-rule="evenodd" stroke="none" stroke-width="0" d="M 436.837,606.829 L 434.987,613.735 L 436.856,616.969 L 438.621,613.909 Z "/> <path id="dp_path153" fill="black" fill-rule="evenodd" stroke="none" stroke-width="0" d="M 443.619,606.829 L 441.767,613.735 L 443.635,616.969 L 445.401,613.909 Z "/> <path id="dp_path154" fill="none" fill-rule="evenodd" stroke="black" stroke-width="2.66667" d="M 506.084,640.707 L 506.084,572.848 C 506.075,553.331 489.941,542.548 453.744,542.632 L 453.744,640.144 Z "/> <path id="dp_path155" fill="none" fill-rule="evenodd" stroke="black" stroke-width="1.33333" d="M 490.559,541.933 L 490.559,640.352"/> <path id="dp_path156" fill="none" fill-rule="evenodd" stroke="black" stroke-width="1.33333" d="M 475.857,536.908 L 475.857,640.112"/> <path id="dp_path157" fill="none" fill-rule="evenodd" stroke="black" stroke-width="1.33333" d="M 461.769,534.512 L 461.769,639.315"/> <path id="dp_path158" fill="black" fill-rule="evenodd" stroke="none" stroke-width="0" d="M 505.855,630.621 L 454.372,630.621 L 454.372,639.788 L 506.637,639.788 Z "/> <path id="dp_path159" fill="none" fill-rule="evenodd" stroke="black" stroke-width="1.33333" d="M 468.516,534.512 L 468.516,639.315"/> <path id="dp_path160" fill="none" fill-rule="evenodd" stroke="black" stroke-width="1.33333" d="M 483.164,536.908 L 483.164,640.112"/> <path id="dp_path161" fill="none" fill-rule="evenodd" stroke="black" stroke-width="1.33333" d="M 498.147,541.933 L 498.147,640.352"/> <path id="dp_path162" fill="black" fill-rule="evenodd" stroke="none" stroke-width="0" d="M 498.18,544.769 C 499.625,544.468 500.28,543.575 500.472,542.332 C 500.428,539.22 499.308,536.308 497.892,533.447 C 496.757,536.564 495.895,539.589 495.885,542.332 C 496.224,543.571 496.901,544.472 498.18,544.769 Z "/> <path id="dp_path163" fill="black" fill-rule="evenodd" stroke="none" stroke-width="0" d="M 490.641,544.312 C 492.088,544.009 492.743,543.117 492.935,541.875 C 492.892,538.764 491.771,535.851 490.355,532.989 C 489.219,536.107 488.357,539.132 488.347,541.875 C 488.687,543.113 489.363,544.013 490.641,544.312 Z "/> <path id="dp_path164" fill="black" fill-rule="evenodd" stroke="none" stroke-width="0" d="M 483.332,541.001 C 484.779,540.699 485.433,539.805 485.627,538.563 C 485.583,535.452 484.463,532.54 483.045,529.677 C 481.909,532.796 481.049,535.821 481.04,538.563 C 481.377,539.801 482.053,540.703 483.332,541.001 Z "/> <path id="dp_path165" fill="black" fill-rule="evenodd" stroke="none" stroke-width="0" d="M 476.024,540.887 C 477.471,540.584 478.125,539.691 478.317,538.449 C 478.273,535.337 477.153,532.424 475.737,529.563 C 474.6,532.683 473.74,535.707 473.731,538.449 C 474.069,539.687 474.745,540.588 476.024,540.887 Z "/> <path id="dp_path166" fill="black" fill-rule="evenodd" stroke="none" stroke-width="0" d="M 468.713,538.373 C 470.16,538.073 470.815,537.177 471.005,535.936 C 470.963,532.825 469.844,529.912 468.428,527.052 C 467.292,530.169 466.431,533.193 466.421,535.936 C 466.759,537.175 467.435,538.076 468.713,538.373 Z "/> <path id="dp_path167" fill="black" fill-rule="evenodd" stroke="none" stroke-width="0" d="M 461.635,538.488 C 463.079,538.187 463.735,537.292 463.927,536.052 C 463.884,532.939 462.763,530.027 461.347,527.167 C 460.211,530.284 459.351,533.311 459.34,536.052 C 459.68,537.288 460.356,538.191 461.635,538.488 Z "/> <path id="dp_path168" fill="black" fill-rule="evenodd" stroke="none" stroke-width="0" d="M 498.108,606.829 L 499.959,613.735 L 498.091,616.969 L 496.323,613.909 Z "/> <path id="dp_path169" fill="black" fill-rule="evenodd" stroke="none" stroke-width="0" d="M 490.551,606.829 L 492.401,613.735 L 490.533,616.969 L 488.767,613.909 Z "/> <path id="dp_path170" fill="black" fill-rule="evenodd" stroke="none" stroke-width="0" d="M 483.135,606.829 L 484.985,613.735 L 483.117,616.969 L 481.349,613.909 Z "/> <path id="dp_path171" fill="black" fill-rule="evenodd" stroke="none" stroke-width="0" d="M 475.86,606.829 L 477.711,613.735 L 475.843,616.969 L 474.076,613.909 Z "/> <path id="dp_path172" fill="black" fill-rule="evenodd" stroke="none" stroke-width="0" d="M 468.515,606.829 L 470.364,613.735 L 468.497,616.969 L 466.729,613.909 Z "/> <path id="dp_path173" fill="black" fill-rule="evenodd" stroke="none" stroke-width="0" d="M 461.735,606.829 L 463.585,613.735 L 461.717,616.969 L 459.949,613.909 Z "/> <path id="dp_path174" fill="black" fill-rule="evenodd" stroke="none" stroke-width="0" d="M 394.303,583.369 L 399.168,583.369 L 399.168,586.399 L 394.303,586.399 Z "/> <path id="dp_path175" fill="black" fill-rule="evenodd" stroke="none" stroke-width="0" d="M 393.8,627.221 L 398.667,627.221 L 398.667,630.253 L 393.8,630.253 Z "/> <path id="dp_path176" fill="black" fill-rule="evenodd" stroke="none" stroke-width="0" d="M 506.393,583.369 L 511.26,583.369 L 511.26,586.399 L 506.393,586.399 Z "/> <path id="dp_path177" fill="black" fill-rule="evenodd" stroke="none" stroke-width="0" d="M 505.892,627.221 L 510.757,627.221 L 510.757,630.253 L 505.892,630.253 Z "/> <path id="dp_path178" fill="white" fill-rule="evenodd" stroke="none" stroke-width="0" d="M 510.576,567.921 L 525.811,567.921 L 525.811,641.772 L 510.576,641.772 Z "/> <path id="dp_path179" fill="white" fill-rule="evenodd" stroke="none" stroke-width="0" d="M 518.193,553.808 C 522.587,553.808 526.148,557.369 526.148,561.761 C 526.148,566.152 522.587,569.713 518.193,569.713 C 513.8,569.713 510.239,566.152 510.239,561.761 C 510.239,557.369 513.8,553.808 518.193,553.808 Z "/> <path id="dp_path180" fill="white" fill-rule="evenodd" stroke="none" stroke-width="0" d="M 380.089,567.921 L 395.323,567.921 L 395.323,641.772 L 380.089,641.772 Z "/> <path id="dp_path181" fill="white" fill-rule="evenodd" stroke="none" stroke-width="0" d="M 387.707,553.808 C 392.101,553.808 395.661,557.369 395.661,561.761 C 395.661,566.152 392.101,569.713 387.707,569.713 C 383.313,569.713 379.753,566.152 379.753,561.761 C 379.753,557.369 383.313,553.808 387.707,553.808 Z "/> <path id="dp_path182" fill="#2a8a3d" fill-rule="evenodd" stroke="none" stroke-width="0" d="M 379.741,595.944 C 372.529,591.129 364.551,589.648 356.056,590.387 C 342.747,591.175 332.243,594.987 324.48,601.753 C 319.665,598.376 314.931,594.989 302.325,592.912 C 287.236,590.921 275.857,594.489 268.456,604.027 L 268.456,641.672 L 379.744,641.672 Z "/> <path id="dp_path183" fill="#107023" fill-rule="evenodd" stroke="none" stroke-width="0" d="M 525.899,595.944 C 533.109,591.129 541.089,589.648 549.583,590.387 C 562.893,591.175 573.397,594.987 581.159,601.753 C 581.56,590.228 618.671,583.737 624.024,591.325 L 624.024,642.263 L 525.896,641.672 Z "/> <path id="dp_path184" fill="#c1b095" fill-rule="evenodd" stroke="none" stroke-width="0" d="M 351.697,221.524 L 351.697,196.048 L 381.649,196.048 L 381.649,220.888 L 366.977,229.8 Z "/> <path id="dp_path185" fill="#754e49" fill-rule="evenodd" stroke="none" stroke-width="0" d="M 355.716,196.496 L 355.716,182.044 C 358.431,180.999 361.147,181.009 363.863,182.044 L 363.863,196.295 Z "/> <path id="dp_path186" fill="#754e49" fill-rule="evenodd" stroke="none" stroke-width="0" d="M 369.651,196.496 L 369.651,182.044 C 372.365,180.999 375.081,181.009 377.797,182.044 L 377.797,196.295 Z "/> </g> </svg>