<?xml version="1.0" encoding="UTF-8"?>
<svg version="1.1" viewBox="0 0 934.66 187.13" xmlns="http://www.w3.org/2000/svg">
 <g transform="translate(-87.585 -524.85)" fill-rule="evenodd" stroke-width="0">
  <path d="m803.49 524.85v72.899h-114.96v5.608h-104.68v-68.225h-75.704v46.729h-37.384v-28.037h-94.394v13.084h-84.979l1.479-3.186c1.277-2.752 1.682-6.872-1.118-8.924-3.382-2.478-6.441-4.1-10.661-5.15-8.017-1.995-16.215-2.651-24.417-3.606l-0.948-6.857c-0.892-6.44-1.092-6.857-3.288-6.857-3.588 0-7.166-0.268-10.748-0.468-5.622-0.312-11.195-0.467-16.824-0.467-9.398 0-18.306 1.841-26.91 5.511-0.793 0.256-1.586 0.514-2.381 0.772-2 2.124-4 4.249-5.999 6.373l-1.466 3.16c-1.238 2.667-1.466 7.939-1.466 33.859v30.701c-1.525-0.903-3.05-1.804-4.576-2.707-8.981-4.27-18.784-6.318-28.44-8.509h-2.185c-2.092 0-2.183-0.289-2.183-6.931 0-5.937-0.286-7.172-1.997-8.597-1.231-1.024-4.068-1.813-7.391-2.051-3.332-0.24-10.038-0.58-11.924 3.191-0.457 0.915-0.474 2.497-0.037 3.551 0.433 1.044 0.788 3.91 0.788 6.368 0 3.417-0.341 4.469-1.451 4.469-3.108 0-6.209 0.836-9.262 1.373-8.796 1.547-16.798 4.934-24.754 8.859-2.028 1.001-4.132 1.843-4.6733 1.869-0.048 0.05-0.9827 0.05-0.9827 0.05v50.468c0.9347 2.804 0.9347 2.804 0.9347 48.6h933.67v-166.36h-99.067v28.973h-40.188v-49.535zm-8.412 116.83c0-1.842-0.622-1.87-42.524-1.87-41.901 0-42.525 0.028-42.525 1.87s0.624 1.869 42.525 1.869c41.902 0 42.524-0.027 42.524-1.869zm0 35.516c0-1.843-0.622-1.87-42.524-1.87-41.901 0-42.525 0.027-42.525 1.87 0 1.841 0.624 1.869 42.525 1.869 41.902 0 42.524-0.028 42.524-1.869zm0-17.758c0-1.842-0.622-1.869-42.524-1.869-41.901 0-42.525 0.027-42.525 1.869s0.624 1.868 42.525 1.868c41.902 0 42.524-0.026 42.524-1.868zm-0.137-35.982c-0.215-1.223-5.684-1.403-42.579-1.403h-42.333l0.192 1.403c0.168 1.222 5.612 1.401 42.581 1.401h42.386zm-123.37 21.496c-0.215-1.22-5.373-1.403-39.775-1.403h-39.529l0.192 1.403c0.168 1.221 5.3 1.401 39.777 1.401h39.582zm0 16.822c-0.215-1.22-5.373-1.402-39.775-1.402h-39.529l0.192 1.402c0.168 1.222 5.3 1.402 39.777 1.402h39.582zm0 16.823c-0.215-1.22-5.373-1.401-39.775-1.401h-39.529l0.192 1.401c0.168 1.221 5.3 1.403 39.777 1.403h39.582zm0-50.468c-0.215-1.22-5.373-1.403-39.775-1.403h-39.529l0.192 1.403c0.168 1.22 5.3 1.401 39.777 1.401h39.582zm-492.54 22.429c-0.216-1.217-5.009-1.401-36.505-1.401h-36.258l0.192 1.401c0.168 1.219 4.936 1.403 36.506 1.403h36.312zm0-15.888c-0.216-1.217-5.009-1.401-36.505-1.401h-36.258l0.192 1.401c0.168 1.219 4.936 1.403 36.506 1.403h36.312zm0 31.778c-0.216-1.218-5.009-1.403-36.505-1.403h-36.258l0.192 1.403c0.168 1.218 4.936 1.401 36.506 1.401h36.312zm780.53-104.21v-4.673h-16.823v9.347h16.823zm0 14.954v-4.672h-16.823v9.345h16.823zm0 28.973v-4.673h-16.823v9.346h16.823zm21.496 0v-4.673h-15.888v9.346h15.888zm0-43.927v-4.673h-15.888v9.347h15.888zm20.562 0v-4.673h-15.889v9.347h15.889zm0 43.927v-4.673h-15.889v9.346h15.889zm-549.55-35.515v-4.673h-15.888v9.347h15.888zm0 41.123v-4.673h-15.888v9.346h15.888zm528.99-34.581v-4.672h-15.888v9.345h15.888zm20.562 0v-4.672h-15.889v9.345h15.889zm-132.85 38.786c-0.214-1.206-3.816-1.401-25.758-1.401h-25.509l0.192 1.401c0.165 1.208 3.743 1.403 25.757 1.403h25.564zm0-43.926c-0.214-1.206-3.816-1.402-25.758-1.402h-25.509l0.192 1.402c0.165 1.208 3.743 1.402 25.757 1.402h25.564zm0 58.88c-0.214-1.206-3.816-1.402-25.758-1.402h-25.509l0.192 1.402c0.165 1.208 3.743 1.402 25.757 1.402h25.564zm0-43.926c-0.214-1.206-3.816-1.402-25.758-1.402h-25.509l0.192 1.402c0.165 1.207 3.743 1.402 25.757 1.402h25.564zm90.793 4.672v-4.205h-16.823v8.412h16.823zm-547.68-21.028v-4.673h-14.953v9.347h14.953zm19.627 0v-4.673h-14.953v9.347h14.953zm-19.627 41.123v-4.673h-14.953v9.346h14.953zm19.627 0v-4.673h-14.953v9.346h14.953zm-252.51 70.095c-0.164-0.603-13.127-0.935-36.492-0.935h-36.238l0.212 0.935c0.138 0.604 13.071 0.934 36.494 0.934h36.278zm390.7-88.32c-0.212-1.203-3.607-1.402-23.887-1.402h-23.64l0.192 1.402c0.166 1.204 3.534 1.402 23.888 1.402h23.695zm431.93-1.87v-4.205h-15.889v8.412h15.889zm-20.562 0v-4.205h-15.888v8.412h15.888zm-411.36 15.89c-0.212-1.203-3.607-1.403-23.887-1.403h-23.64l0.192 1.403c0.166 1.202 3.534 1.401 23.888 1.401h23.695zm-117.62-9.347v-4.205h-15.888v8.41h15.888zm0-14.019v-4.206h-15.888v8.412h15.888zm117.62-4.673c-0.212-1.203-3.607-1.403-23.887-1.403h-23.64l0.192 1.403c0.166 1.204 3.534 1.401 23.888 1.401h23.695zm0 55.141c-0.212-1.202-3.607-1.401-23.887-1.401h-23.64l0.192 1.401c0.166 1.204 3.534 1.403 23.888 1.403h23.695zm-138.18-36.449v-4.205h-14.953v8.41h14.953zm-19.627 0v-4.205h-14.953v8.41h14.953zm19.627-14.019v-4.206h-14.953v8.412h14.953zm-19.627 0v-4.206h-14.953v8.412h14.953zm-168.36 6.542c-0.212-1.199-3.4-1.402-22.019-1.402h-21.772l0.192 1.402c0.167 1.2 3.328 1.402 22.02 1.402h21.826zm0 25.234c-0.212-1.198-3.4-1.401-22.019-1.401h-21.772l0.192 1.401c0.167 1.2 3.328 1.403 22.02 1.403h21.826zm78.643-8.41v-4.207h-14.019v8.412h14.019zm0-25.235v-4.207h-14.019v8.412h14.019zm36.45 0v-4.207h-13.085v8.412h13.085zm-17.757 0v-4.207h-13.085v8.412h13.085zm17.757 25.235v-4.207h-13.085v8.412h13.085zm-17.757 0v-4.207h-13.085v8.412h13.085zm-18.693-12.618v-3.738h-14.019v7.476h14.019zm0 25.234v-3.738h-14.019v7.476h14.019zm36.45 0v-3.738h-13.085v7.476h13.085zm0-25.234v-3.738h-13.085v7.476h13.085zm-17.757 0v-3.738h-13.085v7.476h13.085zm0 25.234v-3.738h-13.085v7.476h13.085zm527.88-62.619c-0.161-0.593-9.544-0.935-25.744-0.935h-25.489l0.212 0.935c0.136 0.596 9.488 0.935 25.745 0.935h25.531zm0 87.853c-0.161-0.594-9.544-0.934-25.744-0.934h-25.489l0.212 0.934c0.136 0.596 9.488 0.935 25.745 0.935h25.531zm0-102.81c-0.161-0.595-9.544-0.935-25.744-0.935h-25.489l0.212 0.935c0.136 0.596 9.488 0.934 25.745 0.934h25.531zm0 58.88c-0.161-0.594-9.544-0.935-25.744-0.935h-25.489l0.212 0.935c0.136 0.596 9.488 0.934 25.745 0.934h25.531zm0 73.834c-0.161-0.594-9.544-0.934-25.744-0.934h-25.489l0.212 0.934c0.136 0.595 9.488 0.935 25.745 0.935h25.531zm0-14.954c-0.161-0.594-9.544-0.934-25.744-0.934h-25.489l0.212 0.934c0.136 0.596 9.488 0.934 25.745 0.934h25.531zm-299.07-108.41c-0.161-0.592-8.921-0.934-23.875-0.934h-23.62l0.211 0.934c0.136 0.594 8.865 0.935 23.877 0.935h23.662zm0 97.199c-0.161-0.592-8.921-0.935-23.875-0.935h-23.62l0.211 0.935c0.136 0.593 8.865 0.935 23.877 0.935h23.662zm0-83.18c-0.161-0.592-8.921-0.935-23.875-0.935h-23.62l0.211 0.935c0.136 0.593 8.865 0.935 23.877 0.935h23.662zm0 111.22c-0.161-0.592-8.921-0.935-23.875-0.935h-23.62l0.211 0.935c0.136 0.593 8.865 0.934 23.877 0.934h23.662zm0-14.02c-0.161-0.592-8.921-0.935-23.875-0.935h-23.62l0.211 0.935c0.136 0.593 8.865 0.934 23.877 0.934h23.662zm0-42.058c-0.161-0.592-8.921-0.934-23.875-0.934h-23.62l0.211 0.934c0.136 0.594 8.865 0.935 23.877 0.935h23.662zm-324.31-66.356c-0.16-0.59-8.297-0.934-22.005-0.934h-21.752l0.212 0.934c0.134 0.591 8.242 0.935 22.006 0.935h21.794zm-1.869 10.28c-0.16-0.589-8.298-0.934-22.006-0.934h-21.752l0.212 0.934c0.135 0.591 8.243 0.935 22.007 0.935h21.793zm0 13.084c-0.16-0.589-8.298-0.934-22.006-0.934h-21.752l0.212 0.934c0.135 0.591 8.243 0.935 22.007 0.935h21.793zm0 63.554c-0.16-0.59-8.298-0.935-22.006-0.935h-21.752l0.212 0.935c0.135 0.59 8.243 0.934 22.007 0.934h21.793zm0-13.084c-0.16-0.59-8.298-0.935-22.006-0.935h-21.752l0.212 0.935c0.135 0.59 8.243 0.934 22.007 0.934h21.793zm0 26.169c-0.16-0.589-8.298-0.935-22.006-0.935h-21.752l0.212 0.935c0.135 0.591 8.243 0.935 22.007 0.935h21.793zm0 25.235c-0.16-0.591-8.298-0.935-22.006-0.935h-21.752l0.212 0.935c0.135 0.59 8.243 0.933 22.007 0.933h21.793zm0-13.086c-0.16-0.589-8.298-0.934-22.006-0.934h-21.752l0.212 0.934c0.135 0.591 8.243 0.935 22.007 0.935h21.793zm0-63.553c-0.16-0.589-8.298-0.935-22.006-0.935h-21.752l0.212 0.935c0.135 0.591 8.243 0.935 22.007 0.935h21.793zm651.59-3.739c0-2.741-0.103-2.802-4.673-2.802s-4.672 0.061-4.672 2.802c0 2.743 0.102 2.804 4.672 2.804s4.673-0.061 4.673-2.804zm-388.8 5.608c0-2.741-0.103-2.804-4.672-2.804-4.571 0-4.673 0.063-4.673 2.804 0 2.742 0.102 2.804 4.673 2.804 4.569 0 4.672-0.062 4.672-2.804zm0 14.019c0-2.741-0.103-2.803-4.672-2.803-4.571 0-4.673 0.062-4.673 2.803 0 2.743 0.102 2.804 4.673 2.804 4.569 0 4.672-0.061 4.672-2.804zm401.88-19.627c0-2.741-0.104-2.802-4.673-2.802s-4.673 0.061-4.673 2.802c0 2.743 0.104 2.804 4.673 2.804s4.673-0.061 4.673-2.804zm-427.11 5.608c0-2.7-0.156-2.804-4.207-2.804-4.049 0-4.205 0.104-4.205 2.804s0.156 2.804 4.205 2.804c4.051 0 4.207-0.104 4.207-2.804zm440.2-5.608c0-2.7-0.156-2.802-4.205-2.802-4.051 0-4.207 0.102-4.207 2.802 0 2.702 0.156 2.804 4.207 2.804 4.049 0 4.205-0.102 4.205-2.804zm-428.05 5.608c0-2.7-0.156-2.804-4.205-2.804-4.051 0-4.207 0.104-4.207 2.804s0.156 2.804 4.207 2.804c4.049 0 4.205-0.104 4.205-2.804zm0 14.019c0-2.7-0.156-2.803-4.205-2.803-4.051 0-4.207 0.103-4.207 2.803 0 2.701 0.156 2.804 4.207 2.804 4.049 0 4.205-0.103 4.205-2.804zm-12.149 0c0-2.7-0.156-2.803-4.207-2.803-4.049 0-4.205 0.103-4.205 2.803 0 2.701 0.156 2.804 4.205 2.804 4.051 0 4.207-0.103 4.207-2.804zm414.03-5.14c0-2.18-0.311-2.336-4.673-2.336s-4.672 0.156-4.672 2.336c0 2.181 0.31 2.337 4.672 2.337s4.673-0.156 4.673-2.337zm13.085 14.953c0-2.18-0.312-2.336-4.673-2.336s-4.673 0.156-4.673 2.336c0 2.182 0.312 2.338 4.673 2.338s4.673-0.156 4.673-2.338zm-13.085 0c0-2.18-0.311-2.336-4.673-2.336s-4.672 0.156-4.672 2.336c0 2.182 0.31 2.338 4.672 2.338s4.673-0.156 4.673-2.338zm13.085-14.953c0-2.18-0.312-2.336-4.673-2.336s-4.673 0.156-4.673 2.336c0 2.181 0.312 2.337 4.673 2.337s4.673-0.156 4.673-2.337zm-629.92-25.235c0-2.145-0.342-2.336-4.206-2.336-3.863 0-4.206 0.191-4.206 2.336 0 2.147 0.343 2.338 4.206 2.338 3.864 0 4.206-0.191 4.206-2.338zm-11.216 25.235c0-2.145-0.342-2.336-4.205-2.336s-4.205 0.191-4.205 2.336c0 2.147 0.342 2.337 4.205 2.337s4.205-0.19 4.205-2.337zm0-25.235c0-2.145-0.342-2.336-4.205-2.336s-4.205 0.191-4.205 2.336c0 2.147 0.342 2.338 4.205 2.338s4.205-0.191 4.205-2.338zm654.22 40.188c0-2.145-0.342-2.336-4.205-2.336-3.864 0-4.207 0.191-4.207 2.336 0 2.147 0.343 2.338 4.207 2.338 3.863 0 4.205-0.191 4.205-2.338zm-643.01-1.868c0-2.146-0.342-2.337-4.206-2.337-3.863 0-4.206 0.191-4.206 2.337s0.343 2.336 4.206 2.336c3.864 0 4.206-0.19 4.206-2.336zm-11.216 0c0-2.146-0.342-2.337-4.205-2.337s-4.205 0.191-4.205 2.337 0.342 2.336 4.205 2.336 4.205-0.19 4.205-2.336zm11.216-13.085c0-2.145-0.342-2.336-4.206-2.336-3.863 0-4.206 0.191-4.206 2.336 0 2.147 0.343 2.337 4.206 2.337 3.864 0 4.206-0.19 4.206-2.337zm-11.216-38.319c0-2.145-0.342-2.336-4.205-2.336s-4.205 0.191-4.205 2.336c0 2.146 0.342 2.336 4.205 2.336s4.205-0.19 4.205-2.336zm11.216 0c0-2.145-0.342-2.336-4.206-2.336-3.863 0-4.206 0.191-4.206 2.336 0 2.146 0.343 2.336 4.206 2.336 3.864 0 4.206-0.19 4.206-2.336zm643.01 38.319c0-2.145-0.342-2.336-4.205-2.336-3.864 0-4.207 0.191-4.207 2.336 0 2.147 0.343 2.337 4.207 2.337 3.863 0 4.205-0.19 4.205-2.337zm-631.79-25.235c0-2.102-0.373-2.336-3.739-2.336-3.364 0-3.738 0.234-3.738 2.336 0 2.104 0.374 2.338 3.738 2.338 3.366 0 3.739-0.234 3.739-2.338zm0-13.084c0-2.104-0.373-2.336-3.739-2.336-3.364 0-3.738 0.232-3.738 2.336s0.374 2.336 3.738 2.336c3.366 0 3.739-0.232 3.739-2.336zm0 51.404c0-2.104-0.373-2.337-3.739-2.337-3.364 0-3.738 0.233-3.738 2.337 0 2.103 0.374 2.336 3.738 2.336 3.366 0 3.739-0.233 3.739-2.336zm0-13.085c0-2.103-0.373-2.336-3.739-2.336-3.364 0-3.738 0.233-3.738 2.336 0 2.104 0.374 2.337 3.738 2.337 3.366 0 3.739-0.233 3.739-2.337zm216.83 19.16c0-1.62-0.623-1.869-4.672-1.869-4.051 0-4.673 0.249-4.673 1.869s0.622 1.869 4.673 1.869c4.049 0 4.672-0.249 4.672-1.869zm-25.233 0c0-1.593-0.624-1.869-4.207-1.869s-4.205 0.276-4.205 1.869c0 1.592 0.622 1.869 4.205 1.869s4.207-0.277 4.207-1.869zm12.149 0c0-1.593-0.623-1.869-4.205-1.869-3.583 0-4.207 0.276-4.207 1.869 0 1.592 0.624 1.869 4.207 1.869 3.582 0 4.205-0.277 4.205-1.869zm-226.18 6.541c0-1.592-0.622-1.868-4.205-1.868s-4.205 0.276-4.205 1.868c0 1.594 0.622 1.87 4.205 1.87s4.205-0.276 4.205-1.87zm11.216 0c0-1.592-0.624-1.868-4.206-1.868-3.583 0-4.206 0.276-4.206 1.868 0 1.594 0.623 1.87 4.206 1.87 3.582 0 4.206-0.276 4.206-1.87zm0-38.318c0-1.592-0.624-1.87-4.206-1.87-3.583 0-4.206 0.278-4.206 1.87 0 1.593 0.623 1.869 4.206 1.869 3.582 0 4.206-0.276 4.206-1.869zm-11.216 0c0-1.592-0.622-1.87-4.205-1.87s-4.205 0.278-4.205 1.87c0 1.593 0.622 1.869 4.205 1.869s4.205-0.276 4.205-1.869zm22.431 0c0-1.558-0.623-1.87-3.739-1.87-3.114 0-3.738 0.312-3.738 1.87s0.624 1.869 3.738 1.869c3.116 0 3.739-0.311 3.739-1.869zm0 38.318c0-1.557-0.623-1.868-3.739-1.868-3.114 0-3.738 0.311-3.738 1.868 0 1.559 0.624 1.87 3.738 1.87 3.116 0 3.739-0.311 3.739-1.87z"/>
  <path d="m795.08 641.68c0-1.842-0.622-1.87-42.524-1.87-41.901 0-42.525 0.028-42.525 1.87s0.624 1.869 42.525 1.869c41.902 0 42.524-0.027 42.524-1.869z" fill="#fefefe"/>
  <path d="m795.08 677.19c0-1.843-0.622-1.87-42.524-1.87-41.901 0-42.525 0.027-42.525 1.87 0 1.841 0.624 1.869 42.525 1.869 41.902 0 42.524-0.028 42.524-1.869z" fill="#fefefe"/>
  <path d="m795.08 659.43c0-1.842-0.622-1.869-42.524-1.869-41.901 0-42.525 0.027-42.525 1.869s0.624 1.868 42.525 1.868c41.902 0 42.524-0.026 42.524-1.868z" fill="#fefefe"/>
  <path d="m794.94 623.45c-0.215-1.223-5.684-1.403-42.579-1.403h-42.333l0.192 1.403c0.168 1.222 5.612 1.401 42.581 1.401h42.386z" fill="#fefefe"/>
  <path d="m671.58 628.12c-0.215-1.22-5.373-1.403-39.775-1.403h-39.529l0.192 1.403c0.168 1.22 5.3 1.401 39.777 1.401h39.582z" fill="#fefefe"/>
  <path d="m671.58 644.95c-0.215-1.22-5.373-1.403-39.775-1.403h-39.529l0.192 1.403c0.168 1.221 5.3 1.401 39.777 1.401h39.582z" fill="#fefefe"/>
  <path d="m671.58 678.59c-0.215-1.22-5.373-1.401-39.775-1.401h-39.529l0.192 1.401c0.168 1.221 5.3 1.403 39.777 1.403h39.582z" fill="#fefefe"/>
  <path d="m671.58 661.77c-0.215-1.22-5.373-1.402-39.775-1.402h-39.529l0.192 1.402c0.168 1.222 5.3 1.402 39.777 1.402h39.582z" fill="#fefefe"/>
  <path d="m179.04 634.66c-0.216-1.217-5.009-1.401-36.505-1.401h-36.258l0.192 1.401c0.168 1.219 4.936 1.403 36.506 1.403h36.312z" fill="#fefefe"/>
  <path d="m179.04 650.55c-0.216-1.217-5.009-1.401-36.505-1.401h-36.258l0.192 1.401c0.168 1.219 4.936 1.403 36.506 1.403h36.312z" fill="#fefefe"/>
  <path d="m179.04 666.44c-0.216-1.218-5.009-1.403-36.505-1.403h-36.258l0.192 1.403c0.168 1.218 4.936 1.401 36.506 1.401h36.312z" fill="#fefefe"/>
  <path d="m959.57 577.19v-4.672h-16.823v9.345h16.823z" fill="#fefefe"/>
  <path d="m959.57 562.23v-4.673h-16.823v9.347h16.823z" fill="#fefefe"/>
  <path d="m959.57 606.16v-4.673h-16.823v9.346h16.823z" fill="#fefefe"/>
  <path d="m1001.6 562.23v-4.673h-15.889v9.347h15.889z" fill="#fefefe"/>
  <path d="m1001.6 577.19v-4.672h-15.889v9.345h15.889z" fill="#fefefe"/>
  <path d="m981.07 577.19v-4.672h-15.888v9.345h15.888z" fill="#fefefe"/>
  <path d="m452.08 611.77v-4.673h-15.888v9.346h15.888z" fill="#fefefe"/>
  <path d="m452.08 570.64v-4.673h-15.888v9.347h15.888z" fill="#fefefe"/>
  <path d="m1001.6 606.16v-4.673h-15.889v9.346h15.889z" fill="#fefefe"/>
  <path d="m981.07 606.16v-4.673h-15.888v9.346h15.888z" fill="#fefefe"/>
  <path d="m981.07 562.23v-4.673h-15.888v9.347h15.888z" fill="#fefefe"/>
  <path d="m868.78 630.93c-0.214-1.206-3.816-1.402-25.758-1.402h-25.509l0.192 1.402c0.165 1.208 3.743 1.402 25.757 1.402h25.564z" fill="#fefefe"/>
  <path d="m868.78 572.05c-0.214-1.206-3.816-1.402-25.758-1.402h-25.509l0.192 1.402c0.165 1.208 3.743 1.402 25.757 1.402h25.564z" fill="#fefefe"/>
  <path d="m868.78 615.97c-0.214-1.206-3.816-1.401-25.758-1.401h-25.509l0.192 1.401c0.165 1.208 3.743 1.403 25.757 1.403h25.564z" fill="#fefefe"/>
  <path d="m868.78 587c-0.214-1.206-3.816-1.402-25.758-1.402h-25.509l0.192 1.402c0.165 1.207 3.743 1.402 25.757 1.402h25.564z" fill="#fefefe"/>
  <path d="m959.57 591.67v-4.205h-16.823v8.412h16.823z" fill="#fefefe"/>
  <path d="m431.52 611.77v-4.673h-14.953v9.346h14.953z" fill="#fefefe"/>
  <path d="m431.52 570.64v-4.673h-14.953v9.347h14.953z" fill="#fefefe"/>
  <path d="m411.89 570.64v-4.673h-14.953v9.347h14.953z" fill="#fefefe"/>
  <path d="m411.89 611.77v-4.673h-14.953v9.346h14.953z" fill="#fefefe"/>
  <path d="m179.01 681.86c-0.164-0.603-13.127-0.935-36.492-0.935h-36.238l0.212 0.935c0.138 0.604 13.071 0.934 36.494 0.934h36.278z" fill="#fefefe"/>
  <path d="m569.7 579.52c-0.212-1.203-3.607-1.403-23.887-1.403h-23.64l0.192 1.403c0.166 1.204 3.534 1.401 23.888 1.401h23.695z" fill="#fefefe"/>
  <path d="m569.7 634.66c-0.212-1.202-3.607-1.401-23.887-1.401h-23.64l0.192 1.401c0.166 1.204 3.534 1.403 23.888 1.403h23.695z" fill="#fefefe"/>
  <path d="m569.7 607.56c-0.212-1.203-3.607-1.403-23.887-1.403h-23.64l0.192 1.403c0.166 1.202 3.534 1.401 23.888 1.401h23.695z" fill="#fefefe"/>
  <path d="m452.08 598.22v-4.205h-15.888v8.41h15.888z" fill="#fefefe"/>
  <path d="m569.7 593.54c-0.212-1.203-3.607-1.402-23.887-1.402h-23.64l0.192 1.402c0.166 1.204 3.534 1.402 23.888 1.402h23.695z" fill="#fefefe"/>
  <path d="m1001.6 591.67v-4.205h-15.889v8.412h15.889z" fill="#fefefe"/>
  <path d="m981.07 591.67v-4.205h-15.888v8.412h15.888z" fill="#fefefe"/>
  <path d="m452.08 584.2v-4.206h-15.888v8.412h15.888z" fill="#fefefe"/>
  <path d="m411.89 584.2v-4.206h-14.953v8.412h14.953z" fill="#fefefe"/>
  <path d="m431.52 598.22v-4.205h-14.953v8.41h14.953z" fill="#fefefe"/>
  <path d="m411.89 598.22v-4.205h-14.953v8.41h14.953z" fill="#fefefe"/>
  <path d="m431.52 584.2v-4.206h-14.953v8.412h14.953z" fill="#fefefe"/>
  <path d="m243.53 590.74c-0.212-1.199-3.4-1.402-22.019-1.402h-21.772l0.192 1.402c0.167 1.2 3.328 1.402 22.02 1.402h21.826z" fill="#fefefe"/>
  <path d="m243.53 615.97c-0.212-1.198-3.4-1.401-22.019-1.401h-21.772l0.192 1.401c0.167 1.2 3.328 1.403 22.02 1.403h21.826z" fill="#fefefe"/>
  <path d="m322.17 607.56v-4.207h-14.019v8.412h14.019z" fill="#fefefe"/>
  <path d="m322.17 582.33v-4.207h-14.019v8.412h14.019z" fill="#fefefe"/>
  <path d="m358.62 607.56v-4.207h-13.085v8.412h13.085z" fill="#fefefe"/>
  <path d="m340.86 607.56v-4.207h-13.085v8.412h13.085z" fill="#fefefe"/>
  <path d="m340.86 582.33v-4.207h-13.085v8.412h13.085z" fill="#fefefe"/>
  <path d="m358.62 582.33v-4.207h-13.085v8.412h13.085z" fill="#fefefe"/>
  <path d="m322.17 594.94v-3.738h-14.019v7.476h14.019z" fill="#fefefe"/>
  <path d="m322.17 620.18v-3.738h-14.019v7.476h14.019z" fill="#fefefe"/>
  <path d="m358.62 620.18v-3.738h-13.085v7.476h13.085z" fill="#fefefe"/>
  <path d="m340.86 620.18v-3.738h-13.085v7.476h13.085z" fill="#fefefe"/>
  <path d="m340.86 594.94v-3.738h-13.085v7.476h13.085z" fill="#fefefe"/>
  <path d="m358.62 594.94v-3.738h-13.085v7.476h13.085z" fill="#fefefe"/>
  <path d="m868.74 601.49c-0.161-0.594-9.544-0.935-25.744-0.935h-25.489l0.212 0.935c0.136 0.596 9.488 0.934 25.745 0.934h25.531z" fill="#fefefe"/>
  <path d="m868.74 675.32c-0.161-0.594-9.544-0.934-25.744-0.934h-25.489l0.212 0.934c0.136 0.595 9.488 0.935 25.745 0.935h25.531z" fill="#fefefe"/>
  <path d="m868.74 542.61c-0.161-0.595-9.544-0.935-25.744-0.935h-25.489l0.212 0.935c0.136 0.596 9.488 0.934 25.745 0.934h25.531z" fill="#fefefe"/>
  <path d="m868.74 660.37c-0.161-0.594-9.544-0.934-25.744-0.934h-25.489l0.212 0.934c0.136 0.596 9.488 0.934 25.745 0.934h25.531z" fill="#fefefe"/>
  <path d="m868.74 557.56c-0.161-0.593-9.544-0.935-25.744-0.935h-25.489l0.212 0.935c0.136 0.596 9.488 0.935 25.745 0.935h25.531z" fill="#fefefe"/>
  <path d="m868.74 645.41c-0.161-0.594-9.544-0.934-25.744-0.934h-25.489l0.212 0.934c0.136 0.596 9.488 0.935 25.745 0.935h25.531z" fill="#fefefe"/>
  <path d="m569.67 621.11c-0.161-0.592-8.921-0.934-23.875-0.934h-23.62l0.211 0.934c0.136 0.594 8.865 0.935 23.877 0.935h23.662z" fill="#fefefe"/>
  <path d="m569.67 649.15c-0.161-0.592-8.921-0.935-23.875-0.935h-23.62l0.211 0.935c0.136 0.593 8.865 0.935 23.877 0.935h23.662z" fill="#fefefe"/>
  <path d="m569.67 663.17c-0.161-0.592-8.921-0.935-23.875-0.935h-23.62l0.211 0.935c0.136 0.593 8.865 0.934 23.877 0.934h23.662z" fill="#fefefe"/>
  <path d="m569.67 677.19c-0.161-0.592-8.921-0.935-23.875-0.935h-23.62l0.211 0.935c0.136 0.593 8.865 0.934 23.877 0.934h23.662z" fill="#fefefe"/>
  <path d="m569.67 551.95c-0.161-0.592-8.921-0.934-23.875-0.934h-23.62l0.211 0.934c0.136 0.594 8.865 0.935 23.877 0.935h23.662z" fill="#fefefe"/>
  <path d="m569.67 565.97c-0.161-0.592-8.921-0.935-23.875-0.935h-23.62l0.211 0.935c0.136 0.593 8.865 0.935 23.877 0.935h23.662z" fill="#fefefe"/>
  <path d="m243.5 641.68c-0.16-0.59-8.298-0.935-22.006-0.935h-21.752l0.212 0.935c0.135 0.59 8.243 0.934 22.007 0.934h21.793z" fill="#fefefe"/>
  <path d="m243.5 578.12c-0.16-0.589-8.298-0.934-22.006-0.934h-21.752l0.212 0.934c0.135 0.591 8.243 0.935 22.007 0.935h21.793z" fill="#fefefe"/>
  <path d="m243.5 628.59c-0.16-0.59-8.298-0.935-22.006-0.935h-21.752l0.212 0.935c0.135 0.59 8.243 0.934 22.007 0.934h21.793z" fill="#fefefe"/>
  <path d="m243.5 565.04c-0.16-0.589-8.298-0.934-22.006-0.934h-21.752l0.212 0.934c0.135 0.591 8.243 0.935 22.007 0.935h21.793z" fill="#fefefe"/>
  <path d="m243.5 680c-0.16-0.591-8.298-0.935-22.006-0.935h-21.752l0.212 0.935c0.135 0.59 8.243 0.933 22.007 0.933h21.793z" fill="#fefefe"/>
  <path d="m243.5 654.76c-0.16-0.589-8.298-0.935-22.006-0.935h-21.752l0.212 0.935c0.135 0.591 8.243 0.935 22.007 0.935h21.793z" fill="#fefefe"/>
  <path d="m245.36 554.76c-0.16-0.59-8.297-0.934-22.005-0.934h-21.752l0.212 0.934c0.134 0.591 8.242 0.935 22.006 0.935h21.794z" fill="#fefefe"/>
  <path d="m243.5 603.36c-0.16-0.589-8.298-0.935-22.006-0.935h-21.752l0.212 0.935c0.135 0.591 8.243 0.935 22.007 0.935h21.793z" fill="#fefefe"/>
  <path d="m243.5 666.91c-0.16-0.589-8.298-0.934-22.006-0.934h-21.752l0.212 0.934c0.135 0.591 8.243 0.935 22.007 0.935h21.793z" fill="#fefefe"/>
  <path d="m895.08 599.62c0-2.741-0.103-2.802-4.673-2.802s-4.672 0.061-4.672 2.802c0 2.743 0.102 2.804 4.672 2.804s4.673-0.061 4.673-2.804z" fill="#fefefe"/>
  <path d="m908.17 599.62c0-2.741-0.104-2.802-4.673-2.802s-4.673 0.061-4.673 2.802c0 2.743 0.104 2.804 4.673 2.804s4.673-0.061 4.673-2.804z" fill="#fefefe"/>
  <path d="m506.29 605.22c0-2.741-0.103-2.804-4.672-2.804-4.571 0-4.673 0.063-4.673 2.804 0 2.742 0.102 2.804 4.673 2.804 4.569 0 4.672-0.062 4.672-2.804z" fill="#fefefe"/>
  <path d="m506.29 619.24c0-2.741-0.103-2.803-4.672-2.803-4.571 0-4.673 0.062-4.673 2.803 0 2.743 0.102 2.804 4.673 2.804 4.569 0 4.672-0.061 4.672-2.804z" fill="#fefefe"/>
  <path d="m481.06 605.22c0-2.7-0.156-2.804-4.207-2.804-4.049 0-4.205 0.104-4.205 2.804s0.156 2.804 4.205 2.804c4.051 0 4.207-0.104 4.207-2.804z" fill="#fefefe"/>
  <path d="m921.25 599.62c0-2.7-0.156-2.802-4.205-2.802-4.051 0-4.207 0.102-4.207 2.802 0 2.702 0.156 2.804 4.207 2.804 4.049 0 4.205-0.102 4.205-2.804z" fill="#fefefe"/>
  <path d="m481.06 619.24c0-2.7-0.156-2.803-4.207-2.803-4.049 0-4.205 0.103-4.205 2.803 0 2.701 0.156 2.804 4.205 2.804 4.051 0 4.207-0.103 4.207-2.804z" fill="#fefefe"/>
  <path d="m493.2 605.22c0-2.7-0.156-2.804-4.205-2.804-4.051 0-4.207 0.104-4.207 2.804s0.156 2.804 4.207 2.804c4.049 0 4.205-0.104 4.205-2.804z" fill="#fefefe"/>
  <path d="m493.2 619.24c0-2.7-0.156-2.803-4.205-2.803-4.051 0-4.207 0.103-4.207 2.803 0 2.701 0.156 2.804 4.207 2.804 4.049 0 4.205-0.103 4.205-2.804z" fill="#fefefe"/>
  <path d="m908.17 614.1c0-2.18-0.312-2.336-4.673-2.336s-4.673 0.156-4.673 2.336c0 2.181 0.312 2.337 4.673 2.337s4.673-0.156 4.673-2.337z" fill="#fefefe"/>
  <path d="m895.08 614.1c0-2.18-0.311-2.336-4.673-2.336s-4.672 0.156-4.672 2.336c0 2.181 0.31 2.337 4.672 2.337s4.673-0.156 4.673-2.337z" fill="#fefefe"/>
  <path d="m895.08 629.06c0-2.18-0.311-2.336-4.673-2.336s-4.672 0.156-4.672 2.336c0 2.182 0.31 2.338 4.672 2.338s4.673-0.156 4.673-2.338z" fill="#fefefe"/>
  <path d="m908.17 629.06c0-2.18-0.312-2.336-4.673-2.336s-4.673 0.156-4.673 2.336c0 2.182 0.312 2.338 4.673 2.338s4.673-0.156 4.673-2.338z" fill="#fefefe"/>
  <path d="m267.03 575.78c0-2.145-0.342-2.336-4.205-2.336s-4.205 0.191-4.205 2.336c0 2.146 0.342 2.336 4.205 2.336s4.205-0.19 4.205-2.336z" fill="#fefefe"/>
  <path d="m921.25 614.1c0-2.145-0.342-2.336-4.205-2.336-3.864 0-4.207 0.191-4.207 2.336 0 2.147 0.343 2.337 4.207 2.337 3.863 0 4.205-0.19 4.205-2.337z" fill="#fefefe"/>
  <path d="m278.24 575.78c0-2.145-0.342-2.336-4.206-2.336-3.863 0-4.206 0.191-4.206 2.336 0 2.146 0.343 2.336 4.206 2.336 3.864 0 4.206-0.19 4.206-2.336z" fill="#fefefe"/>
  <path d="m267.03 588.87c0-2.145-0.342-2.336-4.205-2.336s-4.205 0.191-4.205 2.336c0 2.147 0.342 2.338 4.205 2.338s4.205-0.191 4.205-2.338z" fill="#fefefe"/>
  <path d="m278.24 588.87c0-2.145-0.342-2.336-4.206-2.336-3.863 0-4.206 0.191-4.206 2.336 0 2.147 0.343 2.338 4.206 2.338 3.864 0 4.206-0.191 4.206-2.338z" fill="#fefefe"/>
  <path d="m267.03 614.1c0-2.145-0.342-2.336-4.205-2.336s-4.205 0.191-4.205 2.336c0 2.147 0.342 2.337 4.205 2.337s4.205-0.19 4.205-2.337z" fill="#fefefe"/>
  <path d="m267.03 627.19c0-2.146-0.342-2.337-4.205-2.337s-4.205 0.191-4.205 2.337 0.342 2.336 4.205 2.336 4.205-0.19 4.205-2.336z" fill="#fefefe"/>
  <path d="m278.24 627.19c0-2.146-0.342-2.337-4.206-2.337-3.863 0-4.206 0.191-4.206 2.337s0.343 2.336 4.206 2.336c3.864 0 4.206-0.19 4.206-2.336z" fill="#fefefe"/>
  <path d="m278.24 614.1c0-2.145-0.342-2.336-4.206-2.336-3.863 0-4.206 0.191-4.206 2.336 0 2.147 0.343 2.337 4.206 2.337 3.864 0 4.206-0.19 4.206-2.337z" fill="#fefefe"/>
  <path d="m921.25 629.06c0-2.145-0.342-2.336-4.205-2.336-3.864 0-4.207 0.191-4.207 2.336 0 2.147 0.343 2.338 4.207 2.338 3.863 0 4.205-0.191 4.205-2.338z" fill="#fefefe"/>
  <path d="m506.29 633.26c0-1.62-0.623-1.869-4.672-1.869-4.051 0-4.673 0.249-4.673 1.869s0.622 1.869 4.673 1.869c4.049 0 4.672-0.249 4.672-1.869z" fill="#fefefe"/>
  <path d="m289.46 588.87c0-2.102-0.373-2.336-3.739-2.336-3.364 0-3.738 0.234-3.738 2.336 0 2.104 0.374 2.338 3.738 2.338 3.366 0 3.739-0.234 3.739-2.338z" fill="#fefefe"/>
  <path d="m289.46 614.1c0-2.103-0.373-2.336-3.739-2.336-3.364 0-3.738 0.233-3.738 2.336 0 2.104 0.374 2.337 3.738 2.337 3.366 0 3.739-0.233 3.739-2.337z" fill="#fefefe"/>
  <path d="m289.46 627.19c0-2.104-0.373-2.337-3.739-2.337-3.364 0-3.738 0.233-3.738 2.337 0 2.103 0.374 2.336 3.738 2.336 3.366 0 3.739-0.233 3.739-2.336z" fill="#fefefe"/>
  <path d="m289.46 575.78c0-2.104-0.373-2.336-3.739-2.336-3.364 0-3.738 0.232-3.738 2.336s0.374 2.336 3.738 2.336c3.366 0 3.739-0.232 3.739-2.336z" fill="#fefefe"/>
  <path d="m493.2 633.26c0-1.593-0.623-1.869-4.205-1.869-3.583 0-4.207 0.276-4.207 1.869 0 1.592 0.624 1.869 4.207 1.869 3.582 0 4.205-0.277 4.205-1.869z" fill="#fefefe"/>
  <path d="m267.03 639.8c0-1.592-0.622-1.868-4.205-1.868s-4.205 0.276-4.205 1.868c0 1.594 0.622 1.87 4.205 1.87s4.205-0.276 4.205-1.87z" fill="#fefefe"/>
  <path d="m278.24 639.8c0-1.592-0.624-1.868-4.206-1.868-3.583 0-4.206 0.276-4.206 1.868 0 1.594 0.623 1.87 4.206 1.87 3.582 0 4.206-0.276 4.206-1.87z" fill="#fefefe"/>
  <path d="m278.24 601.49c0-1.592-0.624-1.87-4.206-1.87-3.583 0-4.206 0.278-4.206 1.87 0 1.593 0.623 1.869 4.206 1.869 3.582 0 4.206-0.276 4.206-1.869z" fill="#fefefe"/>
  <path d="m267.03 601.49c0-1.592-0.622-1.87-4.205-1.87s-4.205 0.278-4.205 1.87c0 1.593 0.622 1.869 4.205 1.869s4.205-0.276 4.205-1.869z" fill="#fefefe"/>
  <path d="m481.06 633.26c0-1.593-0.624-1.869-4.207-1.869s-4.205 0.276-4.205 1.869c0 1.592 0.622 1.869 4.205 1.869s4.207-0.277 4.207-1.869z" fill="#fefefe"/>
  <path d="m289.46 639.8c0-1.557-0.623-1.868-3.739-1.868-3.114 0-3.738 0.311-3.738 1.868 0 1.559 0.624 1.87 3.738 1.87 3.116 0 3.739-0.311 3.739-1.87z" fill="#fefefe"/>
  <path d="m289.46 601.49c0-1.558-0.623-1.87-3.739-1.87-3.114 0-3.738 0.312-3.738 1.87s0.624 1.869 3.738 1.869c3.116 0 3.739-0.311 3.739-1.869z" fill="#fefefe"/>
 </g>
</svg>
